<?xml version="1.0" encoding="UTF-8" standalone="no"?>
<!-- Generator: Adobe Illustrator 15.0.0, SVG Export Plug-In . SVG Version: 6.00 Build 0)  -->

<svg
   xmlns:dc="http://purl.org/dc/elements/1.1/"
   xmlns:cc="http://creativecommons.org/ns#"
   xmlns:rdf="http://www.w3.org/1999/02/22-rdf-syntax-ns#"
   xmlns:svg="http://www.w3.org/2000/svg"
   xmlns="http://www.w3.org/2000/svg"
   xmlns:sodipodi="http://sodipodi.sourceforge.net/DTD/sodipodi-0.dtd"
   xmlns:inkscape="http://www.inkscape.org/namespaces/inkscape"
   version="1.1"
   id="Calque_1"
   x="0px"
   y="0px"
   width="640.00293"
   height="155.68863"
   viewBox="0 0 640.0029 155.68863"
   enable-background="new 0 0 1481 414"
   xml:space="preserve"
   inkscape:version="0.48.2 r9819"
   sodipodi:docname="frozen-flask.svg"
   inkscape:export-xdpi="90"
   inkscape:export-ydpi="90"
   inkscape:export-filename="/home/simon/projects/perso/Frozen-Flask/artwork/frozen-flask.png"><metadata
   id="metadata508"><rdf:RDF><cc:Work
       rdf:about=""><dc:format>image/svg+xml</dc:format><dc:type
         rdf:resource="http://purl.org/dc/dcmitype/StillImage" /><dc:title></dc:title></cc:Work></rdf:RDF></metadata><defs
   id="defs506" /><sodipodi:namedview
   pagecolor="#ffffff"
   bordercolor="#666666"
   borderopacity="1"
   objecttolerance="10"
   gridtolerance="10"
   guidetolerance="10"
   inkscape:pageopacity="0"
   inkscape:pageshadow="2"
   inkscape:window-width="1920"
   inkscape:window-height="1022"
   id="namedview504"
   showgrid="false"
   fit-margin-top="0"
   fit-margin-left="0"
   fit-margin-right="0"
   fit-margin-bottom="0"
   inkscape:zoom="1"
   inkscape:cx="314.31773"
   inkscape:cy="84.932749"
   inkscape:window-x="1365"
   inkscape:window-y="26"
   inkscape:window-maximized="1"
   inkscape:current-layer="g382" />
<g
   id="g3"
   transform="matrix(0.4938,0,0,0.4938,-48.63931,-27.412203)">
	<path
   clip-rule="evenodd"
   d="m 313.754,106.131 c 8.814,-2.007 16.91,7.044 26.363,8.388 -9.051,2.245 -16.856,-7.097 -26.363,-8.388 z"
   id="path5"
   inkscape:connector-curvature="0"
   style="fill-rule:evenodd" />
</g>
<g
   id="g7"
   transform="matrix(0.4938,0,0,0.4938,-48.63931,-27.412203)">
	<path
   clip-rule="evenodd"
   d="m 181.938,119.313 c 3.27,-0.873 2.412,2.381 4.793,2.396 -0.193,1.405 -2.185,1.011 -3.595,1.199 -0.22,1.019 0.468,1.13 1.198,1.198 -1.09,3.253 -4.199,-1.221 -5.992,-1.198 0.134,-2.263 3.963,-0.831 3.596,-3.595 z"
   id="path9"
   inkscape:connector-curvature="0"
   style="fill-rule:evenodd" />
</g>
<g
   id="g11"
   transform="matrix(0.4938,0,0,0.4938,-48.63931,-27.412203)">
	<path
   clip-rule="evenodd"
   d="m 382.059,130.098 c 1.985,1.678 1.985,11.503 0,13.182 0.786,-6.019 -1.506,-9.672 0,-13.182 z"
   id="path13"
   inkscape:connector-curvature="0"
   style="fill-rule:evenodd" />
</g>
<g
   id="g15"
   transform="matrix(0.4938,0,0,0.4938,-48.63931,-27.412203)">
	<path
   clip-rule="evenodd"
   d="m 280.804,98.288 c 0.363,5.378 -3.887,50.18 -0.603,55.776 -5.361,-1.895 -0.53,-50.597 0.603,-55.776 z"
   id="path17"
   inkscape:connector-curvature="0"
   style="fill-rule:evenodd" />
</g>
<g
   id="g19"
   transform="matrix(0.4938,0,0,0.4938,-48.63931,-27.412203)">
	<path
   clip-rule="evenodd"
   d="m 265.82,192.412 c -0.155,1.756 -2.744,3.175 -2.396,8.388 -2.809,2.324 -0.201,-7.291 0,-9.587 2.505,-0.507 3.173,0.822 4.794,1.199 -0.297,1.506 -2.383,1.209 -2.398,0 z"
   id="path21"
   inkscape:connector-curvature="0"
   style="fill-rule:evenodd" />
</g>
<g
   id="g23"
   transform="matrix(0.4938,0,0,0.4938,-48.63931,-27.412203)">
	<path
   clip-rule="evenodd"
   d="m 262.226,203.196 c 2.555,6.181 1.188,18.741 0,25.166 -3.037,-3.288 -1.127,-18.482 0,-25.166 z"
   id="path25"
   inkscape:connector-curvature="0"
   style="fill-rule:evenodd" />
</g>
<g
   id="g27"
   transform="matrix(0.4938,0,0,0.4938,-48.63931,-27.412203)">
	<path
   clip-rule="evenodd"
   d="m 372.473,239.146 c 2.737,8.057 0.441,31.506 1.198,45.537 -2.738,-8.056 -0.442,-31.507 -1.198,-45.537 z"
   id="path29"
   inkscape:connector-curvature="0"
   style="fill-rule:evenodd" />
</g>
<g
   id="g31"
   transform="matrix(0.4938,0,0,0.4938,-48.63931,-27.412203)">
	<path
   clip-rule="evenodd"
   d="m 259.694,255.543 c 2.774,4.814 0.416,14.764 1.198,21.57 -4.391,-2.703 -2.582,-16.974 -1.198,-21.57 z"
   id="path33"
   inkscape:connector-curvature="0"
   style="fill-rule:evenodd" />
</g>
<g
   id="g35"
   transform="matrix(0.4938,0,0,0.4938,-48.63931,-27.412203)">
	<path
   clip-rule="evenodd"
   d="m 370.075,259.518 c 2.646,1.773 0.51,18.645 1.198,26.363 -2.646,-1.774 -0.508,-18.645 -1.198,-26.363 z"
   id="path37"
   inkscape:connector-curvature="0"
   style="fill-rule:evenodd" />
</g>
<g
   id="g39"
   transform="matrix(0.4938,0,0,0.4938,-48.63931,-27.412203)">
	<path
   clip-rule="evenodd"
   d="m 371.273,289.477 c 2.127,-3.197 0.873,7.021 1.199,9.586 -2.126,3.197 -0.872,-7.022 -1.199,-9.586 z"
   id="path41"
   inkscape:connector-curvature="0"
   style="fill-rule:evenodd" />
</g>
<g
   id="g43"
   transform="matrix(0.4938,0,0,0.4938,-48.63931,-27.412203)">
	<path
   clip-rule="evenodd"
   d="m 368.877,290.674 c 2.126,-3.197 0.873,7.021 1.198,9.588 -2.126,3.197 -0.873,-7.022 -1.198,-9.588 z"
   id="path45"
   inkscape:connector-curvature="0"
   style="fill-rule:evenodd" />
</g>
<g
   id="g47"
   transform="matrix(0.4938,0,0,0.4938,-48.63931,-27.412203)">
	<path
   clip-rule="evenodd"
   d="m 368.877,317.037 c 1.265,-4.193 2.475,7.645 0,7.191 -4.33,1.135 -1.671,-4.721 -2.396,-7.191 1.779,2.633 2.295,7.676 2.396,0 z"
   id="path49"
   inkscape:connector-curvature="0"
   style="fill-rule:evenodd" />
</g>
<g
   id="g51"
   transform="matrix(0.4938,0,0,0.4938,-48.63931,-27.412203)">
	<path
   clip-rule="evenodd"
   d="m 280.201,57 c 4.403,0.389 6.63,2.956 10.784,3.595 -1.836,6.409 -11.361,-1.719 -14.38,2.397 -3.674,-1.177 1.377,-3.197 1.198,-4.793 -0.867,3 6.451,2.468 10.785,3.595 -0.247,-4.147 -8.896,0.108 -8.387,-4.794 z"
   id="path53"
   inkscape:connector-curvature="0"
   style="fill-rule:evenodd" />
</g>
<g
   id="g55"
   transform="matrix(0.4938,0,0,0.4938,-48.63931,-27.412203)">
	<path
   clip-rule="evenodd"
   d="m 302.969,67.785 c -2.66,1.8 -7.584,-4.354 -13.182,-3.595 2.873,-5.418 9.592,2.168 13.182,3.595 z"
   id="path57"
   inkscape:connector-curvature="0"
   style="fill-rule:evenodd" />
</g>
<g
   id="g59"
   transform="matrix(0.4938,0,0,0.4938,-48.63931,-27.412203)">
	<path
   clip-rule="evenodd"
   d="m 271.813,60.595 c -8.206,6.574 -21.083,8.476 -31.157,13.182 5.154,-4.843 19.664,-10.686 31.157,-13.182 z"
   id="path61"
   inkscape:connector-curvature="0"
   style="fill-rule:evenodd" />
</g>
<g
   id="g63"
   transform="matrix(0.4938,0,0,0.4938,-48.63931,-27.412203)">
	<path
   clip-rule="evenodd"
   d="m 279.002,68.983 c 1.936,-0.337 2.063,1.133 3.596,1.199 -0.259,5.575 -0.054,21.339 -4.794,26.363 3.319,-8.911 -4.717,-21.638 1.198,-27.562 z m 1.199,17.975 c -0.312,-6.303 0.818,-11.165 2.396,-15.578 -1.65,0.052 -2.632,-0.564 -3.596,-1.198 -1.986,4.345 -0.172,14.765 1.2,16.776 z"
   id="path65"
   inkscape:connector-curvature="0"
   style="fill-rule:evenodd" />
</g>
<g
   id="g67"
   transform="matrix(0.4938,0,0,0.4938,-48.63931,-27.412203)">
	<path
   clip-rule="evenodd"
   d="m 302.969,79.768 c -4.083,5.903 -9.915,10.057 -11.983,17.975 -1.611,-7.205 0.888,-22.965 11.983,-17.975 z m -9.586,10.785 c 1.173,-4.419 5.247,-5.937 7.189,-9.587 -2.266,0.269 -2.644,-1.351 -4.793,-1.198 -0.576,3.087 -4.832,8.658 -2.396,10.785 z"
   id="path69"
   inkscape:connector-curvature="0"
   style="fill-rule:evenodd" />
</g>
<g
   id="g71"
   transform="matrix(0.4938,0,0,0.4938,-48.63931,-27.412203)">
	<path
   clip-rule="evenodd"
   d="m 308.961,91.751 c 5.904,-4.339 5.098,8.221 -1.198,3.595 -0.104,-1.7 -0.199,-3.393 1.198,-3.595 z"
   id="path73"
   inkscape:connector-curvature="0"
   style="fill-rule:evenodd" />
</g>
<g
   id="g75"
   transform="matrix(0.4938,0,0,0.4938,-48.63931,-27.412203)">
	<path
   clip-rule="evenodd"
   d="m 360.489,104.933 c -0.214,-1.033 17.36,12.645 15.578,13.182 -4.584,-0.488 -10.393,-9.376 -15.578,-13.182 z"
   id="path77"
   inkscape:connector-curvature="0"
   style="fill-rule:evenodd" />
</g>
<g
   id="g79"
   transform="matrix(0.4938,0,0,0.4938,-48.63931,-27.412203)">
	<path
   clip-rule="evenodd"
   d="m 247.846,106.131 c 3.521,-0.944 17.845,7.586 21.57,14.38 -1.229,-1.347 -15.492,-9.939 -21.57,-14.38 z"
   id="path81"
   inkscape:connector-curvature="0"
   style="fill-rule:evenodd" />
</g>
<g
   id="g83"
   transform="matrix(0.4938,0,0,0.4938,-48.63931,-27.412203)">
	<path
   clip-rule="evenodd"
   d="m 374.869,121.709 c 3.336,-0.54 -0.939,6.532 2.396,5.992 -1.284,3.506 -13.072,7.954 -8.389,9.587 -6.44,2.468 -20.854,9.871 -32.354,14.38 11.218,-11.55 36.051,-9.486 38.347,-29.959 z"
   id="path85"
   inkscape:connector-curvature="0"
   style="fill-rule:evenodd" />
</g>
<g
   id="g87"
   transform="matrix(0.4938,0,0,0.4938,-48.63931,-27.412203)">
	<path
   clip-rule="evenodd"
   d="m 171.152,124.106 c 8.963,1.832 19.076,12.872 27.563,19.173 -7.504,-3.29 -17.315,-14.634 -27.563,-19.173 z"
   id="path89"
   inkscape:connector-curvature="0"
   style="fill-rule:evenodd" />
</g>
<g
   id="g91"
   transform="matrix(0.4938,0,0,0.4938,-48.63931,-27.412203)">
	<path
   clip-rule="evenodd"
   d="m 198.715,125.305 c 3.41,-2.158 6.874,5.867 11.982,5.992 1.467,5.398 -8.207,-5.082 -11.982,-5.992 z"
   id="path93"
   inkscape:connector-curvature="0"
   style="fill-rule:evenodd" />
</g>
<g
   id="g95"
   transform="matrix(0.4938,0,0,0.4938,-48.63931,-27.412203)">
	<path
   clip-rule="evenodd"
   d="m 174.748,205.593 c -9.492,-11.283 -4.807,-47.119 -5.992,-70.702 5.169,16.405 0.708,48.818 3.596,63.512 3.13,1.65 0.207,1.058 2.396,7.19 z"
   id="path97"
   inkscape:connector-curvature="0"
   style="fill-rule:evenodd" />
</g>
<g
   id="g99"
   transform="matrix(0.4938,0,0,0.4938,-48.63931,-27.412203)">
	<path
   clip-rule="evenodd"
   d="m 379.662,138.486 c -1.02,0.22 -1.13,-0.467 -1.198,-1.198 -13.722,6.449 -12.885,6.648 -2.396,-1.198 2.405,-0.408 3.748,0.245 3.594,2.396 z"
   id="path101"
   inkscape:connector-curvature="0"
   style="fill-rule:evenodd" />
</g>
<g
   id="g103"
   transform="matrix(0.4938,0,0,0.4938,-48.63931,-27.412203)">
	<path
   clip-rule="evenodd"
   d="m 185.533,143.28 c 3.574,-3.105 5.912,5.22 9.586,5.992 -0.424,1.878 -2.109,-1.049 -2.396,1.198 -3.782,-1.012 -3.409,-6.178 -7.19,-7.19 z"
   id="path105"
   inkscape:connector-curvature="0"
   style="fill-rule:evenodd" />
</g>
<g
   id="g107"
   transform="matrix(0.4938,0,0,0.4938,-48.63931,-27.412203)">
	<path
   clip-rule="evenodd"
   d="m 377.266,143.28 c -5.215,27.38 1.046,42.253 -4.793,63.512 -0.011,0.036 -1.964,-1.413 -2.397,-1.198 -1.054,3.952 3.078,7.482 -1.198,4.793 -0.087,6.058 1.517,6.855 0,11.983 -1.777,-3.415 -1.4,-8.985 -4.793,-10.785 -5.225,-0.502 -11.693,-2.317 -14.38,-3.595 -8.838,-4.203 4.052,-0.224 11.983,1.198 1.944,-2.05 3.627,-4.361 3.595,-8.389 1.882,0.516 1.024,3.77 4.793,2.396 2.599,0.202 0.543,-4.25 1.198,-5.991 -2.049,-0.053 -3.104,0.891 -3.595,2.396 -0.887,-4.505 6.642,-5.563 5.992,-11.983 -3.157,-0.36 -3.934,1.659 -3.596,4.794 -3.357,0.688 1.981,-8.662 1.198,-13.182 2.377,-3.082 0.764,5.932 0,7.189 3.145,-11.613 2.934,-27.496 4.794,-43.14 -5.226,1.165 -8.629,4.153 -13.182,5.992 1.902,-4.089 8.243,-3.74 10.785,-7.19 1.935,-0.336 2.063,1.134 3.596,1.2 z"
   id="path109"
   inkscape:connector-curvature="0"
   style="fill-rule:evenodd" />
</g>
<g
   id="g111"
   transform="matrix(0.4938,0,0,0.4938,-48.63931,-27.412203)">
	<path
   clip-rule="evenodd"
   d="m 365.282,143.28 c -2.913,3.078 -6.929,5.054 -9.587,8.388 -9.597,0.651 7.402,-5.703 9.587,-8.388 z"
   id="path113"
   inkscape:connector-curvature="0"
   style="fill-rule:evenodd" />
</g>
<g
   id="g115"
   transform="matrix(0.4938,0,0,0.4938,-48.63931,-27.412203)">
	<path
   clip-rule="evenodd"
   d="m 361.688,149.271 c -5.357,5.028 -13.021,7.751 -20.372,10.785 6.377,-4.007 13.116,-7.655 20.372,-10.785 z"
   id="path117"
   inkscape:connector-curvature="0"
   style="fill-rule:evenodd" />
</g>
<g
   id="g119"
   transform="matrix(0.4938,0,0,0.4938,-48.63931,-27.412203)">
	<path
   clip-rule="evenodd"
   d="m 349.704,150.47 c -9.203,4.037 -12.682,6.226 -3.595,-1.198 0.963,0.633 1.946,1.249 3.595,1.198 z"
   id="path121"
   inkscape:connector-curvature="0"
   style="fill-rule:evenodd" />
</g>
<g
   id="g123"
   transform="matrix(0.4938,0,0,0.4938,-48.63931,-27.412203)">
	<path
   clip-rule="evenodd"
   d="m 325.737,166.048 c 0.964,-0.634 1.945,-1.25 3.595,-1.199 -10.382,9.949 -6.612,33.952 -4.793,50.33 -5.79,-14.131 -2.905,-29.421 -5.992,-41.941 -3.177,6.787 -2.608,13.602 -3.595,27.562 -0.959,14.945 -2.654,-17.866 0,-21.569 -1.13,-3.514 -1.792,-4.451 -2.396,-5.992 0.504,-2.691 6.358,-0.033 7.19,-2.396 6.057,-4.684 8.942,-11.621 11.982,-14.38 4.013,-3.642 3.099,-0.944 1.199,1.198 -2.165,2.44 -6.417,5.302 -7.19,8.387 z"
   id="path125"
   inkscape:connector-curvature="0"
   style="fill-rule:evenodd" />
</g>
<g
   id="g127"
   transform="matrix(0.4938,0,0,0.4938,-48.63931,-27.412203)">
	<path
   clip-rule="evenodd"
   d="m 217.888,161.254 c -0.665,-1.319 8.466,7.21 10.784,10.785 0.665,1.32 -8.465,-7.209 -10.784,-10.785 z"
   id="path129"
   inkscape:connector-curvature="0"
   style="fill-rule:evenodd" />
</g>
<g
   id="g131"
   transform="matrix(0.4938,0,0,0.4938,-48.63931,-27.412203)">
	<path
   clip-rule="evenodd"
   d="m 321.619,158.588 c 0.033,-1.165 1.467,-0.93 2.396,-1.198 -7.041,5.341 -16.925,7.841 -23.966,13.182 1.843,-4.567 14.428,-8.728 21.57,-11.984 z"
   id="path133"
   inkscape:connector-curvature="0"
   style="fill-rule:evenodd" />
</g>
<g
   id="g135"
   transform="matrix(0.4938,0,0,0.4938,-48.63931,-27.412203)">
	<path
   clip-rule="evenodd"
   d="m 204.907,148.775 c 8.183,7 16.275,12.955 24.651,22.17 -2.725,-3.095 -16.877,-10.567 -24.651,-22.17 z"
   id="path137"
   inkscape:connector-curvature="0"
   style="fill-rule:evenodd" />
</g>
<g
   id="g139"
   transform="matrix(0.4938,0,0,0.4938,-48.63931,-27.412203)">
	<path
   clip-rule="evenodd"
   d="m 326.936,182.825 c 0,-3.196 0,-6.392 0,-9.587 1.781,1.813 1.931,5.26 2.396,8.389 6.301,-0.709 8.755,2.43 13.182,3.595 -3.092,1.838 -8.731,-4.012 -15.578,-2.397 z"
   id="path141"
   inkscape:connector-curvature="0"
   style="fill-rule:evenodd" />
</g>
<g
   id="g143"
   transform="matrix(0.4938,0,0,0.4938,-48.63931,-27.412203)">
	<path
   clip-rule="evenodd"
   d="m 208.301,175.634 c 3.855,-2.158 -5.107,6.373 2.396,2.396 -2.012,3.98 -7.93,4.054 -9.586,8.389 -2.218,-3.471 5.711,-7.03 7.19,-10.785 z"
   id="path145"
   inkscape:connector-curvature="0"
   style="fill-rule:evenodd" />
</g>
<g
   id="g147"
   transform="matrix(0.4938,0,0,0.4938,-48.63931,-27.412203)">
	<path
   clip-rule="evenodd"
   d="m 267.02,180.427 c 0.134,-2.297 4.012,1.408 7.189,0 3.985,1.057 -8.635,1.484 -2.396,4.794 -0.271,1.726 -3.577,0.418 -3.595,2.396 -1.68,-0.423 -0.104,-2.109 1.198,-2.396 -0.165,-2.231 -0.789,-4.005 -2.396,-4.794 z"
   id="path149"
   inkscape:connector-curvature="0"
   style="fill-rule:evenodd" />
</g>
<g
   id="g151"
   transform="matrix(0.4938,0,0,0.4938,-48.63931,-27.412203)">
	<path
   clip-rule="evenodd"
   d="m 281.399,182.825 c 0.957,2.604 -5.708,7.837 -9.587,9.587 -3.741,-1.04 9.245,-4.776 9.587,-9.587 z"
   id="path153"
   inkscape:connector-curvature="0"
   style="fill-rule:evenodd" />
</g>
<g
   id="g155"
   transform="matrix(0.4938,0,0,0.4938,-48.63931,-27.412203)">
	<path
   clip-rule="evenodd"
   d="m 224.249,193.416 c -5.113,3.765 -34.055,17.753 -34.794,17.942 6.11,-3.039 29.739,-18.516 34.794,-17.942 z"
   id="path157"
   inkscape:connector-curvature="0"
   style="fill-rule:evenodd" />
</g>
<g
   id="g159"
   transform="matrix(0.4938,0,0,0.4938,-48.63931,-27.412203)">
	<path
   clip-rule="evenodd"
   d="m 329.332,192.412 c -1.626,-0.371 -0.994,-3 -1.198,-4.794 3.41,2.165 9.922,11.104 11.983,13.182 10.106,10.188 -10.289,-9.558 -10.785,-8.388 z"
   id="path161"
   inkscape:connector-curvature="0"
   style="fill-rule:evenodd" />
</g>
<g
   id="g163"
   transform="matrix(0.4938,0,0,0.4938,-48.63931,-27.412203)">
	<path
   clip-rule="evenodd"
   d="m 281.399,188.816 c 4.879,1.144 -7.707,10.269 -11.983,5.992 -0.309,-0.308 12.99,-1.189 11.983,-5.992 z"
   id="path165"
   inkscape:connector-curvature="0"
   style="fill-rule:evenodd" />
</g>
<g
   id="g167"
   transform="matrix(0.4938,0,0,0.4938,-48.63931,-27.412203)">
	<path
   clip-rule="evenodd"
   d="m 246.647,193.609 c 7.823,6.563 10.524,28.618 9.587,47.934 -1.256,2.408 -0.574,12.916 -2.397,10.785 0.541,-6.533 -2.136,-9.848 -1.198,-16.777 4.542,8.967 0.544,-1.328 0,-5.992 -1.208,-10.363 -1.113,-34.319 -5.992,-35.95 z"
   id="path169"
   inkscape:connector-curvature="0"
   style="fill-rule:evenodd" />
</g>
<g
   id="g171"
   transform="matrix(0.4938,0,0,0.4938,-48.63931,-27.412203)">
	<path
   clip-rule="evenodd"
   d="m 251.44,193.609 c -0.936,-2.455 4.468,7.877 4.794,11.984 -0.78,4.172 -3.882,-8.463 -4.794,-11.984 z"
   id="path173"
   inkscape:connector-curvature="0"
   style="fill-rule:evenodd" />
</g>
<g
   id="g175"
   transform="matrix(0.4938,0,0,0.4938,-48.63931,-27.412203)">
	<path
   clip-rule="evenodd"
   d="m 377.266,197.205 c -3.619,12.384 -1.078,24.686 -8.389,34.752 3.298,-4.541 1.935,-16.503 7.19,-33.554 0.462,-1.5 0.227,-9.383 1.199,-1.198 z"
   id="path177"
   inkscape:connector-curvature="0"
   style="fill-rule:evenodd" />
</g>
<g
   id="g179"
   transform="matrix(0.4938,0,0,0.4938,-48.63931,-27.412203)">
	<path
   clip-rule="evenodd"
   d="m 381,208 c 21.567,4.629 34.914,24.855 56.182,33.543 C 416.914,236.03 404.025,215.493 381,208 z"
   id="path181"
   inkscape:connector-curvature="0"
   style="fill-rule:evenodd" />
</g>
<g
   id="g183"
   transform="matrix(0.4938,0,0,0.4938,-48.63931,-27.412203)">
	<path
   clip-rule="evenodd"
   d="m 352.101,215.179 c 3.949,4.22 6.497,8.571 4.793,15.579 -8.652,6.463 -8.135,9.002 -11.983,11.982 -8.643,6.699 4.255,-5.088 5.992,-7.189 2.885,-3.49 7.604,-12.598 1.198,-20.372 z"
   id="path185"
   inkscape:connector-curvature="0"
   style="fill-rule:evenodd" />
</g>
<g
   id="g187"
   transform="matrix(0.4938,0,0,0.4938,-48.63931,-27.412203)">
	<path
   clip-rule="evenodd"
   d="m 350.902,239.146 c 0.943,2.984 -6.522,7.824 -10.785,9.586 7.367,3.551 32.837,-26.936 14.38,-10.785 -1.021,-0.521 9.891,-9.061 11.983,-14.379 -0.371,12.471 -21.212,27.443 -28.76,28.76 -1.474,-2.557 8.385,-7.289 13.182,-13.182 z"
   id="path189"
   inkscape:connector-curvature="0"
   style="fill-rule:evenodd" />
</g>
<g
   id="g191"
   transform="matrix(0.4938,0,0,0.4938,-48.63931,-27.412203)">
	<path
   clip-rule="evenodd"
   d="m 174.775,226.867 c 1.316,-3.021 11.851,7.973 8.788,6.697 -2.957,-2.19 -5.48,-5.05 -8.788,-6.697 z"
   id="path193"
   inkscape:connector-curvature="0"
   style="fill-rule:evenodd" />
</g>
<g
   id="g195"
   transform="matrix(0.4938,0,0,0.4938,-48.63931,-27.412203)">
	<path
   clip-rule="evenodd"
   d="m 372.473,234.354 c 0.337,2.141 -1.133,2.459 -1.199,1.197 -1.66,1.934 -3.396,3.795 -4.793,5.992 -1.845,-1.537 2.338,-7.18 5.992,-7.189 z"
   id="path197"
   inkscape:connector-curvature="0"
   style="fill-rule:evenodd" />
</g>
<g
   id="g199"
   transform="matrix(0.4938,0,0,0.4938,-48.63931,-27.412203)">
	<path
   clip-rule="evenodd"
   d="m 362.886,241.543 c -2.869,6.656 -10.478,10.875 -16.776,15.578 -23.376,17.453 -51.188,32.689 -79.09,44.338 21.396,2.219 37.832,-10.896 52.727,-19.174 -13.294,11.561 -40.893,24.779 -58.719,20.373 -9.122,-2.256 0.518,0.227 3.595,-1.199 10.079,-4.666 14.396,-6.344 20.372,-11.982 0.971,0.227 1.194,1.201 2.396,1.197 -0.508,-3.201 4.53,-0.164 5.992,-5.99 1.797,2.021 21.002,-7.984 28.76,-15.58 9.747,-1.641 10.571,-9.35 17.975,-9.586 -3.014,-3.284 18.058,-10.723 22.768,-17.975 z"
   id="path201"
   inkscape:connector-curvature="0"
   style="fill-rule:evenodd" />
</g>
<g
   id="g203"
   transform="matrix(0.4938,0,0,0.4938,-48.63931,-27.412203)">
	<path
   clip-rule="evenodd"
   d="m 358.092,253.525 c -6.706,4.943 -23.855,20.035 -35.949,27.563 6.579,-5.07 23.496,-20.393 35.949,-27.563 z"
   id="path205"
   inkscape:connector-curvature="0"
   style="fill-rule:evenodd" />
</g>
<g
   id="g207"
   transform="matrix(0.4938,0,0,0.4938,-48.63931,-27.412203)">
	<path
   clip-rule="evenodd"
   d="m 320.944,261.914 c -16.195,10.17 -32.947,19.779 -50.33,28.76 11.025,-9.203 26.445,-13.932 33.553,-23.967 3.21,2.139 -4.653,3.242 -4.793,5.992 8.979,-2.172 13.052,-10.582 21.57,-10.785 z"
   id="path209"
   inkscape:connector-curvature="0"
   style="fill-rule:evenodd" />
</g>
<g
   id="g211"
   transform="matrix(0.4938,0,0,0.4938,-48.63931,-27.412203)">
	<path
   clip-rule="evenodd"
   d="m 240.655,266.707 c 2.24,-2.66 -0.534,7.473 -2.396,8.389 -6.48,-0.465 -7.352,-5.217 -1.198,-1.197 3.758,-1.432 0.413,-4.104 3.594,-7.192 z"
   id="path213"
   inkscape:connector-curvature="0"
   style="fill-rule:evenodd" />
</g>
<g
   id="g215"
   transform="matrix(0.4938,0,0,0.4938,-48.63931,-27.412203)">
	<path
   clip-rule="evenodd"
   d="m 350.902,266.707 c -5.59,2.355 -21.343,14.295 -14.38,17.977 -8.703,-4.602 5.659,-15.502 14.38,-17.977 z"
   id="path217"
   inkscape:connector-curvature="0"
   style="fill-rule:evenodd" />
</g>
<g
   id="g219"
   transform="matrix(0.4938,0,0,0.4938,-48.63931,-27.412203)">
	<path
   clip-rule="evenodd"
   d="m 221.482,275.096 c -0.271,-0.977 9.268,8.051 11.983,11.984 0.271,0.977 -9.268,-8.051 -11.983,-11.984 z"
   id="path221"
   inkscape:connector-curvature="0"
   style="fill-rule:evenodd" />
</g>
<g
   id="g223"
   transform="matrix(0.4938,0,0,0.4938,-48.63931,-27.412203)">
	<path
   clip-rule="evenodd"
   d="m 115.484,291.873 c 4.514,29.852 27.516,42.102 53.925,51.527 49.437,17.645 85.029,40.385 140.75,10.785 11.627,-6.176 21.075,-17.523 32.354,-21.57 10.026,-3.596 24.815,-1.645 35.95,-5.99 17.953,-7.008 25.834,-25.553 41.941,-27.563 15.083,-1.881 29.301,6.803 44.339,3.596 13.521,-2.885 19.418,-9.168 27.562,-20.373 -2.597,7.422 -11.127,18.15 -20.372,21.57 -16.466,6.092 -35.642,-5.018 -53.925,-2.396 -17.388,2.494 -23.884,21.609 -39.545,27.563 -9.874,3.752 -26.513,2.037 -38.347,7.189 -10.216,4.449 -16.5,12.604 -25.165,17.975 -38.167,23.662 -57.97,19.043 -104.8,4.793 -40.791,-12.411 -89.522,-21.821 -94.667,-67.106 z"
   id="path225"
   inkscape:connector-curvature="0"
   style="fill-rule:evenodd" />
</g>
<g
   id="g227"
   transform="matrix(0.4938,0,0,0.4938,-48.63931,-27.412203)">
	<path
   clip-rule="evenodd"
   d="m 263.424,287.08 c 3.151,-0.355 0.943,4.648 4.794,3.594 1.352,2.693 -9.987,-0.654 -7.19,-7.189 4.492,-0.514 0.075,7.199 2.396,3.595 z"
   id="path229"
   inkscape:connector-curvature="0"
   style="fill-rule:evenodd" />
</g>
<g
   id="g231"
   transform="matrix(0.4938,0,0,0.4938,-48.63931,-27.412203)">
	<path
   clip-rule="evenodd"
   d="m 245.449,296.666 c 3.776,-0.666 13.27,5.016 19.173,0 3.416,2.793 -15.703,5.457 -19.173,0 z"
   id="path233"
   inkscape:connector-curvature="0"
   style="fill-rule:evenodd" />
</g>
<g
   id="g235"
   transform="matrix(0.4938,0,0,0.4938,-48.63931,-27.412203)">
	<path
   clip-rule="evenodd"
   d="m 298.176,300.262 c -5.854,2.934 -12.512,5.064 -19.174,7.189 5.306,-3.482 11.739,-5.836 19.174,-7.189 z"
   id="path237"
   inkscape:connector-curvature="0"
   style="fill-rule:evenodd" />
</g>
<g
   id="g239"
   transform="matrix(0.4938,0,0,0.4938,-48.63931,-27.412203)">
	<path
   clip-rule="evenodd"
   d="m 264.622,315.84 c -1.574,14.402 -1.578,30.377 -3.595,44.338 -2.96,-9.066 2.111,-30.559 2.396,-44.338 8.859,-6.277 6.994,-7.867 3.596,-1.199 1.544,-3.03 5.091,4.129 -2.397,1.199 z"
   id="path241"
   inkscape:connector-curvature="0"
   style="fill-rule:evenodd" />
</g>
<g
   id="g243"
   transform="matrix(0.4938,0,0,0.4938,-48.63931,-27.412203)">
	<path
   clip-rule="evenodd"
   d="m 115,283 c 0,0 -11.333,-58.333 45.5,-74.5 0,0 6.167,1.167 -3.167,3.5 -9.334,2.333 -44.666,9.333 -42.333,71 z"
   id="path245"
   inkscape:connector-curvature="0"
   style="fill-rule:evenodd" />
</g>
<g
   id="g247"
   transform="matrix(0.4938,0,0,0.4938,-48.63931,-27.412203)">
	<path
   d="m 366.492,110.2 c -6.236,-5.801 -63.215,-41.63 -63.789,-41.992 l 0.531,-0.847 c 2.351,1.477 57.634,36.241 63.939,42.106 l -0.681,0.733 z"
   id="path249"
   inkscape:connector-curvature="0" />
</g>
<g
   id="g251"
   transform="matrix(0.4938,0,0,0.4938,-48.63931,-27.412203)">
	<path
   d="m 255.421,300.036 c -3.989,0 -17.716,-1.165 -27.836,-16.258 -14.051,-20.953 -59.458,-61.001 -59.915,-61.403 l -0.367,-0.322 0.313,-0.374 c 0.085,-0.101 8.422,-10.19 4.927,-17.974 -2.155,-4.798 -2.167,-20.068 -2.178,-34.836 -0.009,-10.812 -0.017,-21.023 -0.859,-26.29 -2.003,-12.522 1.073,-18.462 1.205,-18.708 l 0.106,-0.136 c 0.52,-0.467 52.354,-46.811 89.034,-58.212 l 0.297,0.955 c -35.85,11.143 -86.382,55.966 -88.591,57.937 -0.338,0.712 -2.891,6.586 -1.064,18.006 0.855,5.344 0.863,15.595 0.872,26.447 0.011,14.662 0.023,29.824 2.09,34.427 3.396,7.562 -3.211,16.663 -4.767,18.646 4.329,3.835 46.271,41.214 59.726,61.28 11.572,17.257 27.871,15.793 28.034,15.781 l 0.103,0.994 c -0.025,0.004 -0.426,0.04 -1.13,0.04 z"
   id="path253"
   inkscape:connector-curvature="0" />
</g>
<g
   id="g255"
   transform="matrix(0.4938,0,0,0.4938,-48.63931,-27.412203)">
	<path
   d="m 376.55,198.533 -0.965,-0.26 c 4.007,-14.875 6.393,-57.373 6.416,-57.801 l 0.998,0.055 c -0.023,0.429 -2.415,43.032 -6.449,58.006 z"
   id="path257"
   inkscape:connector-curvature="0" />
</g>
<g
   id="g259"
   transform="matrix(0.4938,0,0,0.4938,-48.63931,-27.412203)">
	<path
   d="m 249.296,294.359 c -5.505,0 -12.276,-5.21 -12.604,-5.465 l 0.614,-0.789 c 0.087,0.068 8.846,6.808 14.022,4.925 3.746,-1.362 3.22,-25.664 2.009,-40.662 l 0.997,-0.08 c 0.327,4.048 3.029,39.611 -2.665,41.682 -0.743,0.271 -1.544,0.389 -2.373,0.389 z"
   id="path261"
   inkscape:connector-curvature="0" />
</g>
<g
   id="g263"
   transform="matrix(0.4938,0,0,0.4938,-48.63931,-27.412203)">
	<path
   d="m 247.429,291.117 c -4.323,0 -9.576,-6.022 -9.808,-6.29 l 0.757,-0.654 c 0.056,0.064 5.613,6.465 9.511,5.913 1.141,-0.158 2.01,-0.91 2.657,-2.298 l 0.906,0.424 c -0.792,1.695 -1.944,2.659 -3.427,2.865 -0.195,0.027 -0.395,0.04 -0.596,0.04 z"
   id="path265"
   inkscape:connector-curvature="0" />
</g>
<g
   id="g267"
   transform="matrix(0.4938,0,0,0.4938,-48.63931,-27.412203)">
	<g
   id="g269">
		<path
   d="m 488.842,288.5 c -0.121,0 -0.242,-0.044 -0.339,-0.133 -0.203,-0.187 -0.216,-0.503 -0.029,-0.706 0.089,-0.096 8.755,-9.679 4.984,-20.17 -4.377,-12.181 -24.058,-21.396 -56.541,-25.866 -0.273,-0.037 -4.705,-2.789 -4.667,-3.063 0.037,-0.274 4.729,2.452 5,2.485 33.353,4.59 52.581,13.376 57.152,26.113 3.97,11.064 -5.101,21.078 -5.193,21.178 -0.099,0.108 -0.232,0.162 -0.367,0.162 z"
   id="path271"
   inkscape:connector-curvature="0" />
	</g>
</g>
<g
   id="g273"
   transform="matrix(0.4938,0,0,0.4938,-48.63931,-27.412203)">
	<path
   clip-rule="evenodd"
   d="m 171.917,215.083 c 0,0 -7.333,5.167 -3.072,8.864 5.574,4.836 9.906,7.803 9.906,7.803 0,0 -11.668,-9.5 -6.834,-16.667 z"
   id="path275"
   inkscape:connector-curvature="0"
   style="fill-rule:evenodd" />
</g>
<g
   id="g277"
   transform="matrix(0.4938,0,0,0.4938,-48.63931,-27.412203)">
	<g
   id="g279">
		<ellipse
   clip-rule="evenodd"
   cx="426.31699"
   cy="326"
   rx="21.816999"
   ry="11"
   id="ellipse281"
   sodipodi:cx="426.31699"
   sodipodi:cy="326"
   sodipodi:rx="21.816999"
   sodipodi:ry="11"
   style="fill-rule:evenodd"
   d="m 448.13399,326 c 0,6.07513 -9.76781,11 -21.817,11 -12.0492,0 -21.817,-4.92487 -21.817,-11 0,-6.07513 9.7678,-11 21.817,-11 12.04919,0 21.817,4.92487 21.817,11 z" />
	</g>
	<g
   id="g283">
		<ellipse
   cx="426.68399"
   cy="325.51199"
   rx="20.716999"
   ry="9.533"
   id="ellipse285"
   sodipodi:cx="426.68399"
   sodipodi:cy="325.51199"
   sodipodi:rx="20.716999"
   sodipodi:ry="9.533"
   style="fill:#ffffff"
   d="m 447.40099,325.51199 c 0,5.26493 -9.27532,9.533 -20.717,9.533 -11.44168,0 -20.717,-4.26807 -20.717,-9.533 0,-5.26493 9.27532,-9.533 20.717,-9.533 11.44168,0 20.717,4.26807 20.717,9.533 z" />
		<path
   d="m 426.684,335.545 c -11.897,0 -21.217,-4.407 -21.217,-10.033 0,-5.626 9.319,-10.033 21.217,-10.033 11.898,0 21.217,4.407 21.217,10.033 0,5.626 -9.32,10.033 -21.217,10.033 z m 0,-19.066 c -11.147,0 -20.217,4.053 -20.217,9.033 0,4.98 9.069,9.033 20.217,9.033 11.148,0 20.217,-4.053 20.217,-9.033 0,-4.98 -9.07,-9.033 -20.217,-9.033 z"
   id="path287"
   inkscape:connector-curvature="0"
   style="fill:#231f20" />
	</g>
</g>
<g
   id="g289"
   transform="matrix(0.4938,0,0,0.4938,-48.63931,-27.412203)">
	<g
   id="g291">
		<ellipse
   clip-rule="evenodd"
   cx="459.06699"
   cy="316"
   rx="8.0670004"
   ry="5"
   id="ellipse293"
   sodipodi:cx="459.06699"
   sodipodi:cy="316"
   sodipodi:rx="8.0670004"
   sodipodi:ry="5"
   style="fill-rule:evenodd"
   d="m 467.13399,316 c 0,2.76142 -3.61172,5 -8.067,5 -4.45529,0 -8.067,-2.23858 -8.067,-5 0,-2.76142 3.61171,-5 8.067,-5 4.45528,0 8.067,2.23858 8.067,5 z" />
	</g>
	<g
   id="g295">
		<ellipse
   cx="459.202"
   cy="315.77701"
   rx="7.6599998"
   ry="4.3340001"
   id="ellipse297"
   sodipodi:cx="459.202"
   sodipodi:cy="315.77701"
   sodipodi:rx="7.6599998"
   sodipodi:ry="4.3340001"
   style="fill:#ffffff"
   d="m 466.862,315.77701 c 0,2.3936 -3.4295,4.334 -7.66,4.334 -4.23051,0 -7.66,-1.9404 -7.66,-4.334 0,-2.3936 3.42949,-4.334 7.66,-4.334 4.2305,0 7.66,1.9404 7.66,4.334 z" />
		<path
   d="m 459.202,320.611 c -4.576,0 -8.16,-2.123 -8.16,-4.834 0,-2.71 3.584,-4.832 8.16,-4.832 4.576,0 8.16,2.122 8.16,4.832 0,2.711 -3.584,4.834 -8.16,4.834 z m 0,-8.666 c -3.881,0 -7.16,1.755 -7.16,3.832 0,2.078 3.279,3.834 7.16,3.834 3.881,0 7.16,-1.756 7.16,-3.834 0,-2.077 -3.279,-3.832 -7.16,-3.832 z"
   id="path299"
   inkscape:connector-curvature="0"
   style="fill:#231f20" />
	</g>
</g>
<g
   id="g301"
   transform="matrix(0.4938,0,0,0.4938,-48.63931,-27.412203)">
	<g
   id="g303">
		<ellipse
   clip-rule="evenodd"
   cx="106.567"
   cy="226.5"
   rx="8.0670004"
   ry="5"
   id="ellipse305"
   sodipodi:cx="106.567"
   sodipodi:cy="226.5"
   sodipodi:rx="8.0670004"
   sodipodi:ry="5"
   style="fill-rule:evenodd"
   d="m 114.634,226.5 c 0,2.76142 -3.61172,5 -8.067,5 -4.45528,0 -8.066999,-2.23858 -8.066999,-5 0,-2.76142 3.611719,-5 8.066999,-5 4.45528,0 8.067,2.23858 8.067,5 z" />
	</g>
	<g
   id="g307">
		<ellipse
   cx="106.702"
   cy="226.27699"
   rx="7.6599998"
   ry="4.3340001"
   id="ellipse309"
   sodipodi:cx="106.702"
   sodipodi:cy="226.27699"
   sodipodi:rx="7.6599998"
   sodipodi:ry="4.3340001"
   style="fill:#ffffff"
   d="m 114.362,226.27699 c 0,2.3936 -3.4295,4.334 -7.66,4.334 -4.2305,0 -7.659996,-1.9404 -7.659996,-4.334 0,-2.3936 3.429496,-4.334 7.659996,-4.334 4.2305,0 7.66,1.9404 7.66,4.334 z" />
		<path
   d="m 106.702,231.111 c -4.576,0 -8.16,-2.123 -8.16,-4.834 0,-2.71 3.584,-4.832 8.16,-4.832 4.576,0 8.16,2.122 8.16,4.832 0,2.711 -3.584,4.834 -8.16,4.834 z m 0,-8.666 c -3.881,0 -7.16,1.755 -7.16,3.832 0,2.078 3.279,3.834 7.16,3.834 3.881,0 7.16,-1.756 7.16,-3.834 0,-2.077 -3.279,-3.832 -7.16,-3.832 z"
   id="path311"
   inkscape:connector-curvature="0"
   style="fill:#231f20" />
	</g>
</g>
<g
   id="g313"
   transform="matrix(0.4938,0,0,0.4938,-48.63931,-27.412203)">
	<path
   d="m 353.083,138.583 c -0.242,0 -0.455,-0.176 -0.493,-0.423 -0.042,-0.272 0.145,-0.528 0.417,-0.571 21.778,-3.388 21.596,-19.315 21.577,-19.992 -0.005,-0.18 0.087,-0.348 0.24,-0.441 0.154,-0.094 0.345,-0.097 0.503,-0.01 3.883,2.157 7.5,14.038 7.651,14.543 0.08,0.264 -0.07,0.543 -0.334,0.623 -0.268,0.08 -0.543,-0.07 -0.623,-0.334 -0.034,-0.112 -3.189,-10.481 -6.482,-13.446 -0.315,3.709 -2.821,17.003 -22.378,20.046 -0.026,0.004 -0.052,0.005 -0.078,0.005 z"
   id="path315"
   inkscape:connector-curvature="0" />
</g>
<g
   id="g317"
   transform="matrix(0.4938,0,0,0.4938,-48.63931,-27.412203)">

		<path
   clip-rule="evenodd"
   stroke-miterlimit="10"
   d="M 169.333,198.167"
   id="path319"
   inkscape:connector-curvature="0"
   style="fill:none;stroke:#000000;stroke-linecap:round;stroke-linejoin:round;stroke-miterlimit:10" />
</g>
<g
   id="g321"
   transform="matrix(0.4938,0,0,0.4938,-48.63931,-27.412203)">
	<path
   clip-rule="evenodd"
   d="m 175.35,237.077 c -5.293,-2.962 -19.619,-16.582 -12.29,-19.464 -9.161,3.603 3.898,16.035 12.29,19.464 z"
   id="path323"
   inkscape:connector-curvature="0"
   style="fill-rule:evenodd" />
</g>
<g
   id="g325"
   transform="matrix(0.4938,0,0,0.4938,-48.63931,-27.412203)">
	<path
   clip-rule="evenodd"
   d="m 175.431,193.893 c -2.93,-7.988 -1.201,-31.486 -2.296,-45.495 2.932,7.988 1.203,31.487 2.296,45.495 z"
   id="path327"
   inkscape:connector-curvature="0"
   style="fill-rule:evenodd" />
</g>
<g
   id="g329"
   transform="matrix(0.4938,0,0,0.4938,-48.63931,-27.412203)">
	<path
   clip-rule="evenodd"
   d="m 177.337,173.469 c -2.688,-1.708 -0.959,-18.627 -1.833,-26.327 2.688,1.71 0.958,18.628 1.833,26.327 z"
   id="path331"
   inkscape:connector-curvature="0"
   style="fill-rule:evenodd" />
</g>
<g
   id="g333"
   transform="matrix(0.4938,0,0,0.4938,-48.63931,-27.412203)">
	<path
   clip-rule="evenodd"
   d="m 175.417,143.549 c -2.049,3.248 -1.041,-6.999 -1.43,-9.555 2.049,-3.247 1.042,6.998 1.43,9.555 z"
   id="path335"
   inkscape:connector-curvature="0"
   style="fill-rule:evenodd" />
</g>
<g
   id="g337"
   transform="matrix(0.4938,0,0,0.4938,-48.63931,-27.412203)">
	<path
   clip-rule="evenodd"
   d="m 177.784,142.293 c -2.049,3.247 -1.042,-6.999 -1.43,-9.556 2.049,-3.247 1.043,6.999 1.43,9.556 z"
   id="path339"
   inkscape:connector-curvature="0"
   style="fill-rule:evenodd" />
</g>
<g
   id="g341"
   transform="matrix(0.4938,0,0,0.4938,-48.63931,-27.412203)">
	<path
   clip-rule="evenodd"
   d="m 216.046,94.985 c 5.601,-6.405 27.045,-16.168 38.809,-23.853 -5.601,6.407 -27.045,16.17 -38.809,23.853 z"
   id="path343"
   inkscape:connector-curvature="0"
   style="fill-rule:evenodd" />
</g>
<g
   id="g345"
   transform="matrix(0.4938,0,0,0.4938,-48.63931,-27.412203)">
	<path
   clip-rule="evenodd"
   d="m 240.878,83.854 c 0.208,-3.179 15.879,-9.783 22.215,-14.247 -0.208,3.179 -15.881,9.783 -22.215,14.247 z"
   id="path347"
   inkscape:connector-curvature="0"
   style="fill-rule:evenodd" />
</g>
<g
   id="g349"
   transform="matrix(0.4938,0,0,0.4938,-48.63931,-27.412203)">
	<path
   clip-rule="evenodd"
   d="m 260.205,70.806 c -3.833,-0.239 5.638,-4.274 7.695,-5.842 3.832,0.24 -5.639,4.274 -7.695,5.842 z"
   id="path351"
   inkscape:connector-curvature="0"
   style="fill-rule:evenodd" />
</g>
<g
   id="g353"
   transform="matrix(0.4938,0,0,0.4938,-48.63931,-27.412203)">
	<path
   clip-rule="evenodd"
   d="m 169.964,201.739 c -4.564,1.261 1.08,7.812 -0.308,11.3 1.799,0.685 0.292,-2.338 2.324,-1.334 1.248,-3.71 -3.264,-6.256 -2.016,-9.966 z"
   id="path355"
   inkscape:connector-curvature="0"
   style="fill-rule:evenodd" />
</g>
<g
   id="g357"
   transform="matrix(0.4938,0,0,0.4938,-48.63931,-27.412203)">
	<path
   clip-rule="evenodd"
   d="m 165.575,237.518 c 2.646,1.773 0.51,18.645 1.198,26.363 -2.646,-1.774 -0.508,-18.645 -1.198,-26.363 z"
   id="path359"
   inkscape:connector-curvature="0"
   style="fill-rule:evenodd" />
</g>
<g
   id="g361"
   transform="matrix(0.4938,0,0,0.4938,-48.63931,-27.412203)">
	<path
   clip-rule="evenodd"
   d="m 283.273,91.476 c 2.127,-3.197 0.873,7.021 1.199,9.587 -2.126,3.196 -0.872,-7.021 -1.199,-9.587 z"
   id="path363"
   inkscape:connector-curvature="0"
   style="fill-rule:evenodd" />
</g>
<g
   id="g365"
   transform="matrix(0.4938,0,0,0.4938,-48.63931,-27.412203)">
	<g
   id="g367">
		<g
   id="layer1_2_"
   transform="translate(-27.820801,-24.714976)">
			<g
   id="path2900_2_">
				<path
   d="m 282.895,243.374 c -5.717,-4.495 -11.817,-8.812 -15.983,-14.88 -8.771,-10.707 -15.523,-23.105 -20.141,-36.132 -2.793,-8.47 -3.748,-17.55 -7.343,-25.696 -3.763,-5.917 0.643,-12.383 7.124,-14.263 2.881,-0.553 7.957,-3.272 1.835,-1.331 -5.491,4.03 -6.024,-3.656 -0.395,-4.14 3.843,-0.509 5.257,-3.656 3.945,-6.487 -4.126,-2.688 9.997,-5.641 2.891,-9.656 -7.403,-7.986 10.354,-9.522 5.974,-0.45 -1.051,6.97 12.403,-1.279 9.285,6.773 3.172,3.869 11.883,0.882 11.665,6.305 4.624,0.318 6.212,4.208 10.55,4.507 4.496,2.031 12.648,3.631 14.182,8.698 -4.463,3.535 -14.795,-7.294 -15.291,2.48 1.348,14.444 1.004,29.326 6.289,43.082 2.502,8.332 8.557,14.889 14.032,21.374 5.237,6.352 12.329,10.827 19.559,14.589 6.34,2.993 13.178,4.975 20.088,6.223 2.805,-2.147 7.752,-10.119 12.125,-6.756 0.213,3.776 -8.678,7.895 -0.412,7.477 4.848,-1.463 8.211,3.752 12.207,-0.953 3.682,4.362 15.295,-2.784 12.68,6.127 -3.543,2.283 -8.707,0.902 -12.258,4.047 -5.844,-2.92 -10.498,2.613 -16.973,1.914 -7.191,1.285 -14.504,1.811 -21.793,1.818 -11.957,-0.947 -24.171,-1.344 -35.545,-5.506 -6.412,-1.864 -12.666,-5.512 -18.297,-9.164 l 0,0 z m 10.098,4.378 c 6.258,2.705 12.377,5.557 19.236,6.418 10.878,1.514 22.117,3.838 33.035,1.717 -4.939,-2.232 -10.053,0.871 -14.975,-1.596 -5.904,1.27 -12.24,-0.322 -18.243,-1.111 -6.827,-3.037 -14.194,-5.129 -20.586,-9.076 -7.991,-2.919 4.13,3.742 6.286,4.281 4.993,2.836 -5.489,-1.453 -6.969,-2.63 -4.182,-2.346 -4.715,-1.857 -0.414,0.525 0.866,0.507 1.722,1.038 2.63,1.472 l 0,0 z m -11.906,-8.417 c 6.063,2.246 -0.027,-4.264 -2.807,-3.886 -1.23,-2.135 -4.703,-3.486 -2.252,-4.632 -4.406,1.532 -4.617,-5.815 -6.689,-4.768 -4.66,-1.471 -1.813,-6.685 -7.363,-9.889 -0.51,-3.373 -5.518,-6.3 -7.115,-11.388 -0.707,-2.608 -5.661,-10.09 -2.616,-3.123 2.59,6.701 7.147,12.442 10.942,18.179 2.945,5.458 6.428,11.165 11.791,14.569 1.807,1.736 3.556,4.393 6.109,4.938 l 0,0 z M 263.62,220.158 m 24.727,21.87 m 3.297,1.201 m 4.115,1.72 m 7.064,3.936 m -13.562,-9.457 m 3.092,1.546 m 15.449,9.639 c 2.484,1.568 14.505,3.434 6.977,0.643 -1.26,0.268 -13.954,-3.592 -6.977,-0.643 z m -24.524,-19.101 m 7.192,4.193 m 6.049,3.71 m -16.17,-11.086 c 2.914,2.232 11.756,0.281 4.463,-1.337 -3.316,-1.769 -10.793,-2.979 -5.699,1.066 l 1.236,0.271 0,0 z m 20.263,12.364 m -6.155,-4.894 c 7.128,2.017 -5.993,-4.507 -1.756,-0.743 l 0.937,0.425 0.819,0.318 0,0 z m 12.347,7.135 c 6.75,0.066 -6.096,-0.928 0,0 l 0,0 z m -29.051,-18.513 m 40.467,24.919 m -28.949,-17.868 m -10.877,-7.841 m -12.883,-8.328 m 33.821,21.468 m 21.058,12.919 m -22.917,-14.842 m -15.687,-9.941 m 26.533,16.486 m -13.802,-9.37 c 5.178,0.67 -6.158,-3.521 -1.133,-0.374 l 1.133,0.374 0,0 z m 17.992,11.064 c 4.832,-2.888 3.242,6.765 8.199,0.816 4.893,-3.572 -4.226,4.416 1.806,0.637 4.362,-2.918 10.801,1.381 14.872,2.783 2.924,-0.141 5.768,2.529 8.77,0.906 5.775,-1.556 -11.291,-2.308 -6.82,-5.066 -5.283,1.535 -9.186,-1.835 -11.787,-5.218 -5.923,-1.369 -12.779,-4.4 -15.738,-9.645 -1.205,-1.967 1.744,0.276 -1.035,-2.941 -3.576,-3.177 -5.361,-6.785 -7.756,-10.643 -2.865,-1.528 -3.199,-6.024 -3.487,-0.153 0.023,-3.705 -3.458,-6.2 -4.31,-5.164 -0.016,-3.572 3.727,-1.781 1.108,-4.423 -0.563,-3.7 -2.421,-7.556 -2.976,-11.737 -0.867,-2.015 -0.124,-6.326 -2.96,-1.767 -1.032,4.817 -0.342,-5.924 1.262,-2.379 2.112,-3.611 -0.754,-3.19 -0.87,-2.688 1.371,-3.05 0.87,-7.374 -0.361,-5.723 0.732,-3.232 1.154,-11.896 -1.097,-10.359 1.368,-3.38 2.593,-15.462 -3.335,-10.857 -2.402,0.034 -6.56,0.873 -8.525,1.852 6.162,3.396 -0.619,1.224 -3.127,0.687 -0.326,3.142 -2.815,1.783 -5.916,1.814 4.957,0.61 -2.416,5.07 -5.262,3.339 -3.693,1.768 3.188,6.175 0.073,7.536 0.384,2.056 -5.659,-0.741 -5.185,4.001 -3.586,-1.507 -0.494,5.632 1.301,3.214 6.102,1.655 4.295,5.418 4.449,8.991 -0.994,2.082 -4.904,-4.896 -0.87,-4.574 -3.185,-5.17 -3.523,-1.867 -6.167,0.534 -0.617,0.176 6.748,3.418 2.128,5.024 4.063,0.625 4.179,4.185 5.008,6.436 2.442,2.548 1.941,-2.812 4.864,0.248 -1.848,-2.725 -9.799,-7.678 -3.4,-6.09 -0.03,-2.74 -1.154,-4.953 0.806,-4.898 1.944,-3.52 -2.032,8.669 2.345,4.199 1.213,-0.527 1.513,-3.521 3.69,0.284 3.163,3.112 1.142,5.368 -3.32,2.52 0.796,2.706 5.972,3.677 5,7.912 1.026,3.725 2.473,2.352 3.728,2.138 0.986,3.619 1.545,0.956 1.592,-0.766 4.512,0.967 3.453,3.635 4.868,5.499 3.106,1.4 -4.452,-9.514 0.886,-3.284 5.616,5.071 2.108,7.188 -2.934,6.376 3.189,-0.259 4.22,4.312 8.209,4.15 3.643,1.732 6.104,8.382 -0.169,5.616 -2.175,-1.961 -9.874,-4.382 -3.589,-0.649 5.813,2.687 10.426,4.295 16.023,7.672 4.01,2.862 5.743,6.138 7.26,6.786 -3.367,1.614 -10.15,-1.283 -5.115,-2.17 -3.141,-0.574 -6.677,-2.163 -3.664,1.753 2.559,2.138 9.066,1.91 10.23,2.151 -0.985,2.18 -2.684,2.352 0.043,2.522 -3.044,1.621 0.972,1.871 1.255,2.798 l 0,0 z M 306.29,225.52 c -1.853,-1.934 -2.33,-5.558 -0.328,-2.406 1.023,0.412 3.285,5.926 0.328,2.406 l 0,0 z m 20.254,12.865 m -23.178,-17.607 m -2.012,-2.71 M 276.958,201.23 m 19.414,10.524 m -13.715,-9.539 m 11.771,3.773 c -2.205,-4.941 1.564,-2.699 0.491,0.813 l -0.491,-0.813 0,0 z m -20.302,-13.539 c -0.986,-1.62 -2.615,-6.375 -2.088,-7.827 0.47,2.366 5.024,10.176 2.231,3.237 -3.089,-5.821 3.69,1.885 4.388,3.338 0.326,1.443 -1.906,-0.395 -0.391,2.99 -2.759,-3.855 -1.63,2.13 -4.14,-1.738 z m -6.272,-4.321 m 2.821,0.97 m -6.789,-5.253 c -2.334,-2.319 -4.027,-4.458 0.109,-1.439 1.596,0.063 -3.541,-4.867 0.384,-1.565 4.128,0.752 2.037,6.764 -0.493,3.004 z m 3.568,-0.091 m 2.193,0.701 m -4.363,-4.166 c -6.791,-6.042 8.531,3.157 1.111,1.12 l -1.111,-1.12 0,0 z m 19.455,11.303 c -2.937,-1.762 -0.779,-12.405 0.225,-5.126 2.857,-0.924 -0.156,3.758 1.977,3.716 -0.338,2.955 -1.292,4.016 -2.202,1.41 z m 7.196,4.252 m -1.247,-1.234 m -24.072,-16.309 c -4.361,-6.021 12.678,6.088 2.793,1.527 -1.031,-0.27 -2.272,-0.367 -2.793,-1.527 z m 13.86,7.347 c -0.414,-5.066 0.921,0.841 0,0 l 0,0 z m 10.521,6.75 m -23.712,-16.394 c 2.593,-0.554 10.745,4.553 3.26,1.459 -0.833,-0.92 -2.606,-0.502 -3.26,-1.459 z m 22.265,11.1 c 0.279,-5.183 1.551,-3.1 0.011,0.74 l -0.011,-0.74 0,0 0,0 z M 269.215,174.2 c 1.057,-1.547 -2.804,-7.004 0.558,-1.958 1.451,1.156 4.203,1.938 1.773,2.42 3.824,3.371 -0.933,0.915 -2.331,-0.462 z m 19.233,11.283 m -21.439,-16.735 m 5.015,2.987 m 14.153,7.874 m -0.817,-1.818 m -1.209,-3.175 c -0.329,-2.003 1.122,2.515 0,0 l 0,0 z m 1.965,-3.192 c -1.35,-2.375 1.701,-10.465 2.043,-5.45 -1.426,3.913 -0.414,6.1 0.58,0.855 1.832,-4.127 -0.396,8.145 -2.623,4.595 l 0,0 z m 2.016,-12.034 m -3.365,66.377 m 6.935,3.51 c 3.861,0.992 3.842,-0.598 0.352,-1.074 -1.875,-1.746 -7.799,-3.598 -2.499,-0.216 0.35,0.889 1.463,0.871 2.147,1.29 l 0,0 z m -13.705,-9.104 c 2.129,1.587 8.01,4.498 3.03,0.605 1.679,-1.952 -3.212,-2.991 -1.594,-4.292 -4.124,-2.53 -3.255,-2.306 -0.36,-2.226 -4.963,-2.213 0.717,-2.048 0.447,-3.188 -1.914,-0.377 -9.505,-3.371 -5.039,0.248 -4.535,-2.318 -1.08,0.863 -2.453,0.527 -4.644,-1.267 4.134,3.533 -0.736,2.343 2.666,2.109 7.166,5.404 1.123,2.231 -0.793,1.146 4.326,2.882 5.582,3.752 l 0,0 z m 7.258,4.171 m 37.152,22.51 m 3.819,1.607 c 2.037,-1.976 0.084,3.143 3.375,-0.486 0.035,-2.594 -0.102,-4.127 -3.781,-0.977 -1.012,0.563 -1.469,2.955 0.406,1.463 l 0,0 z M 265.61,210.39 m 4.079,2.673 m 23.197,13.988 c 2.264,2.013 10.402,1.479 2.75,0.25 -1.131,-1.676 -7.194,-1.274 -2.75,-0.25 z m 31.89,19.697 m 7.248,4.983 m 0.012,-1.317 c 3.859,-4.087 -3.741,0.24 0,0 l 0,0 z m -76.455,-48.419 c -3.289,-4.694 -2.041,-6.804 -5.217,-10.64 -0.602,-2.93 -5.443,-9.583 -2.507,-2.538 2.695,4.125 3.494,10.505 7.724,13.178 z m 75.246,47.116 m 5.416,2.127 m -71.839,-46.039 m 70.71,44.586 c 3.445,-2.215 -0.793,-1.875 -0.625,0.205 l 0.625,-0.205 0,0 z m -46.728,-29.453 m 2.886,1.662 m 49.365,29.291 c 4.414,-3.18 -2.672,-0.607 -0.924,0.604 l 0.924,-0.604 0,0 z m -1.687,-0.812 m 8.631,5.746 m -80.965,-52.112 c 3.232,0.726 12.924,7.966 7.207,0.504 -2.928,-0.868 -1.174,-8.026 -4.16,-6.758 2.005,3.348 1.65,4.774 -2.558,2.664 -5.29,-2.584 -2.974,1.279 -1.942,2.344 -1.404,0.317 1.865,1.221 1.453,1.246 l 0,0 z M 251.88,192.473 c 0.578,-2.395 -5.33,-13.175 -2.792,-5.402 0.921,1.628 0.825,4.715 2.792,5.402 z m 27.045,16.675 m 4.101,0.954 m 35.538,22.402 c -0.674,-1.729 -2.68,-0.039 0,0 l 0,0 z m 1.707,1.25 m 14.091,8.871 m -75.121,-48.273 m 56.197,35.404 m -57.73,-38.973 m 7.225,3.497 m 88.124,54.044 c 3.201,-0.65 10.494,1.627 11.678,-0.848 -3.889,-0.096 -13.451,-2.744 -13.902,0.629 l 0.848,0.135 1.376,0.084 0,0 0,0 z m -85.828,-53.461 m -18.996,-13.178 m 4.532,1.138 m 2.587,1.274 m 16.29,10.448 M 253.63,181.229 m -9.289,-6.027 m 1.381,-1.046 m 7.634,4.558 c 3.229,-1.269 -5.879,-2.62 -0.66,-0.24 l 0.66,0.24 z m 102.156,63.096 m 12.34,6.397 M 254.134,174.712 m -10.858,-7.275 c -0.586,-3.343 -0.503,-9.211 5.076,-7.23 -7.45,1.479 5.152,9.259 3.564,3.117 3.131,0.153 6.125,-1.852 4.482,1.193 6.17,-0.683 10.447,-6.034 16.408,-5.285 4.643,-0.615 9.719,-1.079 14.723,-2.95 4.113,-0.297 8.075,-4.724 5.82,-7.35 -5.609,-0.478 -11.481,0.23 -17.682,1.458 -6.873,1.429 -13.115,4.146 -20.049,5.308 -6.754,0.908 1.361,2.504 -0.574,2.856 -3.527,1.225 4.207,2.049 -0.459,3.339 -2.875,-0.546 -5.872,-1.537 -4.645,-4.57 -6.475,0.838 -12.162,3.528 -7.047,10.113 l 0.383,0.001 0,0 0,0 z m 15.596,-7.945 c 1.52,-5.59 8.135,4.602 2.489,0.745 -0.674,-0.503 -1.782,-0.915 -2.489,-0.745 z m 0.298,-2.709 m 2.78,0.047 c 0.197,-2.573 6.367,1.361 1.017,0.926 l -1.017,-0.926 0,0 z m 3.807,-1.532 m 0.969,-0.652 c 2.314,-2.779 13.105,-1.775 5.207,-0.271 -2.118,-1.595 -3.739,0.94 -5.207,0.271 z m 14.08,-2.171 m 3.998,-0.02 c 1.457,-3.829 5.666,-1.538 0.674,-0.771 0.109,0.406 -0.145,1.978 -0.674,0.771 z m -32.241,20.296 c 4.362,-2.672 -4.633,-2.32 0,0 l 0,0 z m 3.223,0.893 m -9.506,-6.743 m 128.855,80.609 m -13.095,-8.935 m 16.695,9.798 c 3.484,0.008 10.561,-1.082 2.975,-1.08 -1.19,0.184 -6.932,0.147 -2.975,1.08 l 0,0 z M 258.624,172.076 c 2.822,-0.191 4.414,-3.111 -0.545,-2.942 -7.688,-0.797 6.781,2.63 -0.985,1.651 -1.047,0.69 1.471,1.485 1.53,1.291 z m 2.484,1.262 m 2.949,-7.862 m -9.382,-15.686 c 5.035,-1.711 11.921,-3.637 14.298,0.846 -2.42,-2.915 -0.976,-5.781 1.308,-1.524 3.232,4.31 4.85,-1.957 2.749,-3.402 2.395,2.977 5.122,4.383 1.603,0.188 3.822,-4.595 -7.649,0.603 -10.258,0.548 -1.257,0.564 -12.952,2.981 -9.7,3.344 z m 2.952,-5.652 c 2.872,-2.168 9.931,1.29 5.4,-2.155 -0.442,-0.389 -9.923,2.613 -5.4,2.155 z m 10.468,0.433 c 3.361,0.085 -1.449,-4.513 2.555,-2.431 -0.656,-2.149 -4.663,-2.55 -6.621,-3.409 -1.107,1.966 2.255,5.865 4.066,5.84 z m -8.635,-9.503 m 4.279,1.025 c 5.417,-0.721 -1.38,-2.333 -1.091,-0.061 l 1.091,0.061 0,0 z m -7.987,-6.251 c -3.814,-4.981 7.17,0.834 3.294,-4.378 -3.26,-2.596 -6.392,2.923 -3.294,4.378 z m 48.94,26.358 c 1.748,-3.098 -7.225,-4.177 -1.179,-1.098 0.558,0.184 0.431,1.314 1.179,1.098 z"
   id="path371"
   inkscape:connector-curvature="0"
   style="fill:#010101" />
			</g>
		</g>
	</g>
</g>
<g
   id="g373"
   transform="matrix(0.4938,0,0,0.4938,-48.63931,-26.146103)">
	<g
   id="layer1_9_"
   transform="translate(-27.820801,-24.714976)">
		<g
   id="text3850_5_">
			<path
   id="path2830_7_"
   d="m 1178.554,183.789 c -0.798,3.141 -1.29,8.414 -1.477,15.82 -10e-4,1.453 -0.657,2.18 -1.969,2.18 -1.313,0 -2.228,-0.633 -2.742,-1.898 -1.407,-3.422 -2.743,-5.813 -4.008,-7.172 -1.501,-1.594 -3.493,-2.555 -5.977,-2.883 -2.673,-0.422 -9.329,-0.633 -19.969,-0.633 -2.438,0 -4.032,0.258 -4.781,0.773 -0.47,0.328 -0.704,1.031 -0.703,2.109 v 31.852 c 0,1.078 0.679,1.594 2.039,1.547 4.171,-0.047 10.218,-0.328 18.141,-0.844 1.546,-0.188 2.589,-0.691 3.129,-1.512 0.538,-0.82 1.065,-2.941 1.582,-6.363 0.327,-1.875 1.429,-2.602 3.305,-2.18 1.593,0.328 2.272,1.055 2.039,2.18 -1.313,6.375 -1.735,14.672 -1.266,24.891 0.046,1.219 -0.728,1.875 -2.32,1.969 -1.313,0.141 -2.134,-0.563 -2.461,-2.109 -1.22,-5.859 -3.481,-8.988 -6.785,-9.387 -3.306,-0.398 -8.685,-0.598 -16.137,-0.598 -0.845,0 -1.267,0.305 -1.266,0.914 v 31.641 c 0,2.344 0.866,3.938 2.602,4.781 1.358,0.703 4.288,1.336 8.789,1.898 2.296,0.234 3.304,1.242 3.023,3.023 -0.282,1.547 -2.345,2.156 -6.188,1.828 -11.109,-0.891 -20.273,-0.844 -27.492,0.141 -2.016,0.281 -3.023,-0.539 -3.023,-2.461 0,-1.219 1.008,-1.922 3.023,-2.109 4.594,-0.516 6.891,-4.547 6.891,-12.094 v -60.188 c 0,-3.094 -0.551,-5.473 -1.652,-7.137 -1.101,-1.664 -3.152,-3.176 -6.152,-4.535 -1.875,-0.844 -2.578,-1.992 -2.109,-3.445 0.234,-0.891 0.609,-1.383 1.125,-1.477 0.469,-0.141 1.711,-0.047 3.727,0.281 2.953,0.469 9.914,0.703 20.883,0.703 12.937,0 24.116,-0.281 33.539,-0.844 3.14,-0.188 4.71,0.07 4.711,0.773 -10e-4,0.19 -0.025,0.377 -0.071,0.565 l 0,0 z"
   inkscape:connector-curvature="0"
   style="fill:#010101" />
			<path
   id="path2832_5_"
   d="m 1224.257,273.156 c 0,1.875 -1.055,2.695 -3.164,2.461 -6.469,-0.609 -14.484,-0.516 -24.047,0.281 -1.922,0.188 -3.105,0.141 -3.551,-0.141 -0.446,-0.282 -0.668,-1.055 -0.668,-2.32 0,-1.125 1.277,-2.074 3.832,-2.848 2.555,-0.774 3.832,-3.082 3.832,-6.926 V 200.03 c 0,-3.797 -0.551,-6.586 -1.652,-8.367 -1.101,-1.781 -3.035,-3.164 -5.801,-4.148 -1.453,-0.516 -2.18,-1.242 -2.18,-2.18 0,-1.406 1.055,-2.461 3.164,-3.164 3.188,-1.031 6.492,-2.625 9.914,-4.781 2.813,-1.688 4.594,-2.531 5.344,-2.531 1.734,0 2.602,1.195 2.602,3.586 0,-0.188 -0.095,2.156 -0.281,7.031 -0.141,4.641 -0.188,9.211 -0.141,13.711 l 0.281,62.79 c 0,2.859 0.703,4.934 2.109,6.223 1.406,1.289 3.82,2.145 7.242,2.566 2.111,0.234 3.165,1.031 3.165,2.39 z"
   inkscape:connector-curvature="0"
   style="fill:#010101" />
			<path
   id="path2834_5_"
   d="m 1288.382,268.445 c 0,0.984 -1.793,2.473 -5.379,4.465 -3.586,1.992 -6.457,2.988 -8.613,2.988 -1.828,0 -3.445,-0.891 -4.852,-2.672 -1.407,-1.781 -2.391,-2.672 -2.953,-2.672 -0.422,0 -2.648,0.961 -6.68,2.883 -4.032,1.922 -8.086,2.883 -12.164,2.883 -3.844,0 -7.055,-1.125 -9.633,-3.375 -2.813,-2.484 -4.219,-5.859 -4.219,-10.125 0,-8.109 9.281,-13.922 27.844,-17.438 3.188,-0.609 4.805,-1.898 4.852,-3.867 l 0.141,-4.5 c 0.281,-7.688 -3.117,-11.531 -10.195,-11.531 -2.016,0 -3.926,1.805 -5.73,5.414 -1.804,3.609 -4.395,5.555 -7.77,5.836 -3.844,0.375 -5.766,-1.242 -5.766,-4.852 0,-2.25 2.859,-4.875 8.578,-7.875 6,-3.141 11.766,-4.711 17.297,-4.711 9.516,0 14.227,4.523 14.133,13.57 l -0.281,28.969 c -0.047,3.047 1.242,4.57 3.867,4.57 0.516,0 1.5,-0.117 2.953,-0.352 1.453,-0.235 2.297,-0.352 2.531,-0.352 1.36,0.002 2.039,0.916 2.039,2.744 l 0,0 z m -21.656,-16.031 c 0.047,-1.172 -0.223,-1.945 -0.809,-2.32 -0.586,-0.375 -1.512,-0.445 -2.777,-0.211 -11.297,2.016 -16.945,5.695 -16.945,11.039 0,5.391 2.93,8.086 8.789,8.086 2.344,0 4.758,-0.445 7.242,-1.336 2.906,-1.031 4.359,-2.273 4.359,-3.727 l 0.141,-11.531 z"
   inkscape:connector-curvature="0"
   style="fill:#010101" />
			<path
   id="path2836_5_"
   d="m 1340.835,260.078 c 0,4.969 -1.91,8.918 -5.73,11.848 -3.82,2.93 -9.035,4.395 -15.645,4.395 -4.406,0 -8.813,-0.469 -13.219,-1.406 -3.797,-0.844 -6,-1.617 -6.609,-2.32 -0.375,-0.656 -0.563,-3.867 -0.563,-9.633 0,-2.484 0.563,-3.773 1.688,-3.867 1.125,-0.141 2.086,0.469 2.883,1.828 3.516,6.141 9.188,9.211 17.016,9.211 6.609,0 9.914,-2.297 9.914,-6.891 0,-2.016 -0.75,-3.703 -2.25,-5.063 -1.641,-1.547 -4.828,-3.352 -9.563,-5.414 -6.844,-3.047 -11.414,-5.719 -13.711,-8.016 -2.484,-2.438 -3.727,-5.719 -3.727,-9.844 0,-5.063 1.945,-9 5.836,-11.813 3.609,-2.719 8.438,-4.078 14.484,-4.078 3.797,0 7.266,0.305 10.406,0.914 3.375,0.609 5.133,1.359 5.273,2.25 0.375,2.625 1.148,6.422 2.32,11.391 0.141,0.609 -0.516,1.102 -1.969,1.477 -1.547,0.328 -2.578,0.07 -3.094,-0.773 -3.703,-6.047 -8.391,-9.07 -14.063,-9.07 -6.422,0 -9.633,2.063 -9.633,6.188 0,2.297 0.867,4.125 2.602,5.484 1.547,1.172 5.18,3 10.898,5.484 6,2.578 10.078,4.899 12.234,6.961 2.816,2.671 4.222,6.257 4.222,10.757 z"
   inkscape:connector-curvature="0"
   style="fill:#010101" />
			<path
   id="path2838_5_"
   d="m 1422.398,272.734 c 0,1.641 -1.102,2.508 -3.305,2.602 -3.281,0.047 -7.57,0.281 -12.867,0.703 -2.625,0.516 -4.5,0.188 -5.625,-0.984 -7.406,-7.969 -13.688,-16.313 -18.844,-25.031 -0.422,-0.75 -0.961,-1.125 -1.617,-1.125 -0.797,0 -2.18,0.703 -4.148,2.109 -2.203,1.219 -3.305,2.953 -3.305,5.203 0,1.594 0.047,3.891 0.141,6.891 0.094,3 0.844,4.969 2.25,5.906 0.984,0.656 3.258,1.172 6.82,1.547 2.203,0.281 3.305,1.102 3.305,2.461 0,1.078 -0.176,1.746 -0.527,2.004 -0.351,0.258 -1.277,0.316 -2.777,0.176 -4.688,-0.422 -12.609,-0.188 -23.766,0.703 -2.813,0.234 -4.336,-0.117 -4.57,-1.055 -0.094,-0.328 -0.141,-0.797 -0.141,-1.406 0,-1.453 1.43,-2.555 4.289,-3.305 2.578,-0.656 3.867,-3.68 3.867,-9.07 v -61.454 c 0,-3.844 -0.375,-6.516 -1.125,-8.016 -1.031,-1.922 -3.188,-3.422 -6.469,-4.5 -1.547,-0.516 -2.32,-1.242 -2.32,-2.18 0,-1.359 1.102,-2.414 3.305,-3.164 3.516,-1.172 6.867,-2.789 10.055,-4.852 2.578,-1.688 4.172,-2.531 4.781,-2.531 1.922,0 2.883,1.219 2.883,3.656 0,-0.328 -0.023,1.992 -0.07,6.961 -0.047,3.422 -0.07,8.016 -0.07,13.781 l 0.141,44.016 c 0,1.219 0.328,1.828 0.984,1.828 0.703,0 1.781,-0.609 3.234,-1.828 3.891,-3.047 8.672,-7.031 14.344,-11.953 1.125,-1.172 1.688,-2.109 1.688,-2.813 0,-1.266 -1.898,-2.156 -5.695,-2.672 -1.641,-0.188 -2.414,-1.102 -2.32,-2.742 0.141,-1.641 0.961,-2.344 2.461,-2.109 3.375,0.469 8.297,0.727 14.766,0.773 4.5,0.047 8.977,0.07 13.43,0.07 1.453,0.047 2.18,0.914 2.18,2.602 0,1.594 -1.148,2.461 -3.445,2.602 -3.609,0.141 -7.008,0.961 -10.195,2.461 -4.453,2.016 -9.211,5.555 -14.273,10.617 -0.375,0.281 -0.563,0.633 -0.563,1.055 0,0.656 0.797,2.227 2.391,4.711 5.859,8.907 11.391,15.633 16.594,20.18 3.328,2.859 6.445,4.289 9.352,4.289 2.156,0 3.492,0.152 4.008,0.457 0.516,0.305 0.768,1.114 0.768,2.426 l 0,0 z"
   inkscape:connector-curvature="0"
   style="fill:#010101" />
		</g>
	</g>
</g>
<g
   id="g382"
   transform="matrix(0.4938,0,0,0.4938,-48.63931,-27.412203)">
	<path
   stroke-miterlimit="10"
   d="m 583.413,168.198 h -48.69 v 79.835 c 0,3.51 1.535,5.484 5.482,5.484 3.948,0 5.483,-1.975 5.483,-5.484 v -41.014 h 22.576 c 0.23,2.53 0.476,5.935 0.476,9.021 0,3.778 0.856,-3.455 1.46,-9.021 h 1.782 c 0.266,1.395 0.575,3.375 0.423,4.438 -0.146,1.023 0.478,-1.887 1.021,-4.479 2.542,-0.258 4.724,-1.848 4.724,-5.44 0,-3.948 -2.632,-5.483 -5.483,-5.483 h -26.978 v -16.889 h 3.072 c 0.205,1.549 0.424,3.478 0.434,4.725 0.107,-1.178 0.303,-3.145 0.461,-4.725 h 31.918 c 0.469,4.272 1.083,9.338 1.083,6.501 0,-2.193 0.157,-4.591 0.321,-6.501 h 0.436 c 0.453,0 0.898,-0.044 1.33,-0.124 0.291,2.939 0.664,7.506 0.664,11.583 0,4.926 1.273,-6.521 1.938,-12.838 0.942,-0.88 1.551,-2.213 1.551,-4.104 -0.001,-3.95 -2.632,-5.485 -5.484,-5.485 z"
   id="path384"
   inkscape:connector-curvature="0"
   style="fill:#ffffff;stroke:#010101;stroke-width:1.62008911;stroke-miterlimit:10;stroke-dasharray:none"
   inkscape:export-filename="/home/simon/projects/perso/Frozen-Flask/artwork/path398.png"
   inkscape:export-xdpi="90"
   inkscape:export-ydpi="90" />
	<path
   stroke-miterlimit="10"
   d="m 651.512,194.408 h -8.444 c -3.29,0 -6.36,2.084 -9.321,4.496 l -8.225,6.8 v -4.277 c 0,-3.509 -1.097,-7.019 -5.265,-7.019 -4.825,0 -5.264,3.948 -5.264,7.786 v 44.085 c 0,3.619 0.768,7.238 5.264,7.238 4.497,0 5.265,-3.619 5.265,-7.238 v -26.648 l 14.694,-12.173 c 1.864,-1.536 3.29,-2.522 5.265,-2.522 h 3.07 c 2.522,0 5.045,0 6.36,1.864 1.097,1.535 1.097,2.851 1.097,4.605 0,1.956 0.513,3.801 1.676,5.017 0.662,6.292 1.95,17.906 1.95,12.951 0,-4.082 0.375,-8.656 0.665,-11.595 0.341,0.06 0.697,0.099 1.083,0.099 0.237,0 0.459,-0.016 0.675,-0.036 0.167,1.922 0.328,4.353 0.328,6.576 0,2.926 0.654,-2.556 1.127,-6.903 2.587,-1.021 3.024,-4.038 3.024,-6.984 0,-4.825 -1.207,-8.444 -4.716,-11.953 -2.851,-2.853 -6.251,-4.169 -10.308,-4.169 z"
   id="path386"
   inkscape:connector-curvature="0"
   style="fill:#ffffff;stroke:#010101;stroke-width:1.62008911;stroke-miterlimit:10;stroke-dasharray:none"
   inkscape:export-filename="/home/simon/projects/perso/Frozen-Flask/artwork/path398.png"
   inkscape:export-xdpi="90"
   inkscape:export-ydpi="90" />
	<path
   stroke-miterlimit="10"
   d="m 738.803,200.33 c -5.154,-4.276 -7.567,-5.922 -14.915,-5.922 h -8.334 c -7.348,0 -9.761,1.646 -14.915,5.922 -5.264,4.277 -6.689,6.689 -6.689,13.708 v 19.849 c 0,6.91 1.755,9.541 7.238,14.146 5.483,4.607 7.676,5.484 14.366,5.484 h 8.334 c 6.689,0 8.883,-0.877 14.366,-5.484 5.483,-4.605 7.238,-7.236 7.238,-14.146 v -19.849 c 0,-7.019 -1.426,-9.431 -6.689,-13.708 z m -3.839,33.557 c 0,2.193 -0.768,3.619 -3.838,6.252 -2.303,1.973 -3.948,2.852 -7.238,2.852 h -8.334 c -3.29,0 -4.936,-0.879 -7.238,-2.852 -3.07,-2.633 -3.838,-4.059 -3.838,-6.252 v -19.849 c 0,-2.144 0.748,-3.561 3.646,-6.08 0.332,3.064 0.803,7.034 0.803,4.957 0,-2.125 0.21,-4.524 0.353,-5.91 0.306,-0.234 0.606,-0.444 0.905,-0.638 0.135,1.149 0.67,5.941 0.67,10.023 0,4.13 1.277,-8.162 1.574,-11.073 0.892,-0.258 1.893,-0.381 3.125,-0.381 h 8.334 c 3.29,0 4.936,0.877 7.238,2.851 3.07,2.633 3.838,4.058 3.838,6.251 v 19.849 z"
   id="path388"
   inkscape:connector-curvature="0"
   style="fill:#ffffff;stroke:#010101;stroke-width:1.62008911;stroke-miterlimit:10;stroke-dasharray:none"
   inkscape:export-filename="/home/simon/projects/perso/Frozen-Flask/artwork/path398.png"
   inkscape:export-xdpi="90"
   inkscape:export-ydpi="90" />
	<path
   stroke-miterlimit="10"
   d="m 817.318,194.408 h -34.215 c -3.51,0 -7.238,0.768 -7.238,5.264 0,1.219 0.298,2.155 0.784,2.883 0.472,4.427 1.257,11.319 1.257,8.111 0,-2.264 0.168,-4.749 0.337,-6.688 0.556,0.302 1.17,0.517 1.809,0.661 0.279,2.939 0.605,7.177 0.605,10.984 0,4.408 1.02,-4.297 1.711,-10.703 0.25,0.01 0.496,0.016 0.735,0.016 h 28.074 l -36.3,34.654 c -1.864,1.754 -1.974,2.521 -1.974,5.045 v 2.742 c 0,3.07 0.438,6.141 7.786,6.141 h 36.519 c 3.07,0 7.238,-0.658 7.238,-5.264 0,-4.496 -3.729,-5.264 -7.238,-5.264 h -31.145 l 35.312,-33.667 c 0.132,-0.126 0.239,-0.241 0.36,-0.363 0.451,4.032 0.981,8.216 0.981,5.581 0,-2.44 0.195,-5.134 0.377,-7.125 1.016,-1.368 1.353,-2.56 1.353,-4.015 v -3.51 c 10e-4,-3.728 -1.754,-5.483 -7.128,-5.483 z"
   id="path390"
   inkscape:connector-curvature="0"
   style="fill:#ffffff;stroke:#010101;stroke-width:1.62008911;stroke-miterlimit:10;stroke-dasharray:none"
   inkscape:export-filename="/home/simon/projects/perso/Frozen-Flask/artwork/path398.png"
   inkscape:export-xdpi="90"
   inkscape:export-ydpi="90" />
	<path
   stroke-miterlimit="10"
   d="m 896.165,231.584 c 0.561,0 1.064,-0.02 1.543,-0.049 0.364,3.014 0.698,5.223 0.698,3.131 0,-1.045 0.036,-2.135 0.092,-3.197 0.903,-0.102 1.647,-0.277 2.255,-0.543 0.215,2.639 0.404,5.795 0.404,8.697 0,4.514 1.068,-4.717 1.76,-11.154 0.371,-1.148 0.485,-2.662 0.486,-4.65 0.055,-0.541 0.087,-0.861 0.087,-0.861 l -0.087,0.051 v -7.654 c 0,-5.813 -0.658,-9.87 -5.483,-13.708 l -4.277,-3.399 c -4.058,-3.29 -6.47,-3.839 -11.624,-3.839 h -9.65 c -4.277,0 -6.689,0.11 -11.625,4.387 l -3.729,3.181 c -4.387,3.729 -5.154,7.019 -5.154,12.611 v 20.289 c 0,5.701 1.206,8.115 5.374,11.844 l 4.496,3.947 c 3.29,2.852 5.044,2.852 9.431,2.852 h 25.004 c 3.07,0 7.238,-0.658 7.238,-5.264 0,-4.496 -3.729,-5.264 -7.238,-5.264 h -22.591 c -3.51,0 -5.593,-0.439 -7.019,-1.975 l -2.632,-2.852 c -0.768,-0.768 -1.535,-2.084 -1.535,-3.07 v -3.51 h 33.776 z m -33.776,-17.985 c 0,-3.07 0.877,-3.838 2.193,-4.825 l 3.618,-2.632 c 0.235,-0.162 0.469,-0.299 0.702,-0.42 0.333,3.048 0.782,6.791 0.782,4.752 0,-1.785 0.147,-3.764 0.28,-5.182 0.368,-0.112 0.741,-0.19 1.117,-0.242 0.208,1.979 0.545,5.676 0.545,8.926 0,3.471 0.896,-4.572 1.366,-9.038 0.191,-10e-4 0.383,-0.002 0.581,-0.002 h 8.883 c 1.645,0 3.729,0.109 5.045,1.315 l 4.058,3.51 c 1.425,1.315 1.315,2.961 1.315,4.935 v 6.36 h -30.486 v -7.457 z"
   id="path392"
   inkscape:connector-curvature="0"
   style="fill:#ffffff;stroke:#010101;stroke-width:1.62008911;stroke-miterlimit:10;stroke-dasharray:none"
   inkscape:export-filename="/home/simon/projects/perso/Frozen-Flask/artwork/path398.png"
   inkscape:export-xdpi="90"
   inkscape:export-ydpi="90" />
	<path
   stroke-miterlimit="10"
   d="m 981.262,212.502 c -0.22,-5.702 0,-10.198 -4.716,-14.256 -3.181,-2.742 -5.703,-3.839 -9.761,-3.839 l -7.786,0 c -3.399,0 -6.36,1.755 -9.102,3.51 l -8.554,5.593 0,-0.22 0,-1.206 c 0,-3.729 -0.549,-7.677 -5.265,-7.677 -4.825,0 -5.264,3.948 -5.264,7.786 l 0,44.085 c 0,3.619 0.768,7.238 5.264,7.238 4.497,0 5.265,-3.619 5.265,-7.238 l 0,-30.596 15.572,-9.761 c 0.693,-0.415 1.386,-0.685 2.079,-0.837 0.688,6.321 1.639,14.296 1.639,10.038 0,-3.478 0.271,-7.309 0.532,-10.188 l 1.999,0 c 0.122,1.645 0.22,3.502 0.22,5.229 0,2.555 0.499,-1.301 0.94,-5.213 5.771,0.166 6.307,2.725 6.518,8.976 l 0.3293,32.46 c 0.11,3.51 0.65799,7.129 4.93599,7.129 4.715,0 5.264,-4.05833 5.154,-7.78633 z"
   id="path394"
   inkscape:connector-curvature="0"
   style="fill:#ffffff;stroke:#010101;stroke-width:1.62008911;stroke-miterlimit:10;stroke-dasharray:none"
   sodipodi:nodetypes="ccsscccsssssscccsccscccscc"
   inkscape:export-filename="/home/simon/projects/perso/Frozen-Flask/artwork/path398.png"
   inkscape:export-xdpi="90"
   inkscape:export-ydpi="90" />
	<path
   stroke-miterlimit="10"
   d="m 1048.373,204.278 h -25.662 c -4.496,0 -6.58,1.755 -6.58,6.689 0,4.867 2.032,6.638 6.403,6.685 0.332,2.684 0.622,4.459 0.622,2.514 0,-0.819 0.022,-1.668 0.059,-2.509 h 2.384 c 0.172,2.357 0.309,5.001 0.309,7.466 0,3.691 0.715,-1.816 1.354,-7.466 h 21.112 c 4.496,0 6.579,-1.755 6.579,-6.689 0,-4.934 -2.084,-6.69 -6.58,-6.69 z"
   id="path396"
   inkscape:connector-curvature="0"
   style="fill:#ffffff;stroke:#010101;stroke-width:1.62008911;stroke-miterlimit:10;stroke-dasharray:none"
   inkscape:export-filename="/home/simon/projects/perso/Frozen-Flask/artwork/path398.png"
   inkscape:export-xdpi="90"
   inkscape:export-ydpi="90" />
	<path
   stroke-miterlimit="10"
   d="m 549.155,184.707 c 0.03,-0.212 0.041,-0.492 0.039,-0.817 -0.08,0.877 -0.11,1.316 -0.039,0.817 z"
   id="path398"
   inkscape:connector-curvature="0"
   style="fill:#ffffff;stroke:#010101;stroke-width:1.62008911;stroke-miterlimit:10;stroke-dasharray:none"
   inkscape:export-xdpi="90"
   inkscape:export-ydpi="90" />
</g>
<g
   id="g400"
   transform="matrix(0.4938,0,0,0.4938,-48.63931,-27.412203)">
	<path
   clip-rule="evenodd"
   d="m 225.855,285.568 c -5.108,-4.096 -9.823,-9.257 -14.534,-14.425 5.379,3.37 10.202,8.234 14.534,14.425 z"
   id="path402"
   inkscape:connector-curvature="0"
   style="fill-rule:evenodd" />
</g>
<g
   id="g404"
   transform="matrix(0.4938,0,0,0.4938,-48.63931,-27.412203)">
	<path
   clip-rule="evenodd"
   d="m 283.824,117.121 c 0.86,6.491 0.699,13.48 0.531,20.47 -1.557,-6.151 -1.681,-13.002 -0.531,-20.47 z"
   id="path406"
   inkscape:connector-curvature="0"
   style="fill-rule:evenodd" />
</g>
<g
   id="g408"
   transform="matrix(0.4938,0,0,0.4938,-48.63931,-27.412203)">
	<path
   clip-rule="evenodd"
   d="m 213.491,256.866 c -5.465,-3.605 -10.637,-8.31 -15.806,-13.02 5.668,2.857 10.92,7.256 15.806,13.02 z"
   id="path410"
   inkscape:connector-curvature="0"
   style="fill-rule:evenodd" />
</g>
<g
   id="g412"
   transform="matrix(0.4938,0,0,0.4938,-48.63931,-27.412203)">
	<path
   clip-rule="evenodd"
   d="m 319.286,81.112 c 14.411,8.375 29.511,19.175 44.608,29.989 -13.146,-9.769 -27.087,-17.418 -44.608,-29.989 z"
   id="path414"
   inkscape:connector-curvature="0"
   style="fill-rule:evenodd" />
</g>
<g
   id="g416"
   transform="matrix(0.4938,0,0,0.4938,-48.63931,-27.412203)">
	<path
   clip-rule="evenodd"
   d="m 123.75,259.083 c 0,0 -16.25,60.25 45.5,79.75 -21,-11 -55.25,-23 -45.5,-79.75 z"
   id="path418"
   inkscape:connector-curvature="0"
   style="fill-rule:evenodd" />
</g>
<g
   id="g420"
   transform="matrix(0.4938,0,0,0.4938,-48.63931,-27.412203)">
	<path
   clip-rule="evenodd"
   d="m 470.75,295.667 c 0,0 30.75,-21.875 5.25,-39 11.125,7.25 13.75,23.875 -5.25,39 z"
   id="path422"
   inkscape:connector-curvature="0"
   style="fill-rule:evenodd" />
</g>
<g
   id="g424"
   transform="matrix(0.4938,0,0,0.4938,-48.63931,-27.412203)">
	<path
   clip-rule="evenodd"
   d="m 365.576,126.611 c -2.535,2.101 1.625,-5.814 2.985,-4.504 3.184,1.088 -0.913,3.65 -1.485,5.499 -0.021,-2.387 1.75,-5.76 -1.5,-0.995 z"
   id="path426"
   inkscape:connector-curvature="0"
   style="fill-rule:evenodd" />
</g>
<g
   id="g428"
   transform="matrix(0.4938,0,0,0.4938,-48.63931,-27.412203)">
	<path
   clip-rule="evenodd"
   d="m 289.215,178.534 c 4.627,1.465 26.298,13.048 26.748,13.421 -4.628,-2.408 -24.827,-10.04 -26.748,-13.421 z"
   id="path430"
   inkscape:connector-curvature="0"
   style="fill-rule:evenodd" />
</g>
<g
   id="g432"
   transform="matrix(0.4938,0,0,0.4938,-48.63931,-27.412203)">
	<path
   clip-rule="evenodd"
   d="m 247.831,206.242 c 1.123,6.25 0.914,38.394 0.758,39.141 -0.032,-6.825 -3.502,-34.858 -0.758,-39.141 z"
   id="path434"
   inkscape:connector-curvature="0"
   style="fill-rule:evenodd" />
</g>
<g
   id="g436"
   transform="matrix(0.4938,0,0,0.4938,-48.63931,-27.412203)">
	<path
   clip-rule="evenodd"
   d="m 277.224,178.038 c 4.943,-3.985 33.242,-19.231 33.973,-19.452 -5.972,3.304 -28.898,19.803 -33.973,19.452 z"
   id="path438"
   inkscape:connector-curvature="0"
   style="fill-rule:evenodd" />
</g>
<g
   id="g440"
   transform="matrix(0.4938,0,0,0.4938,-48.63931,-27.412203)">
	<path
   clip-rule="evenodd"
   d="m 201.634,207.264 c -2.64,1.944 -17.581,9.166 -17.963,9.263 3.155,-1.569 15.353,-9.559 17.963,-9.263 z"
   id="path442"
   inkscape:connector-curvature="0"
   style="fill-rule:evenodd" />
</g>
<g
   id="g444"
   transform="matrix(0.4938,0,0,0.4938,-48.63931,-27.412203)">
	<path
   clip-rule="evenodd"
   d="m 273.855,55.542 c -2.516,1.486 -16.41,6.547 -16.756,6.6 2.938,-1.108 14.47,-7.097 16.756,-6.6 z"
   id="path446"
   inkscape:connector-curvature="0"
   style="fill-rule:evenodd" />
</g>
<g
   id="g448"
   transform="matrix(0.4938,0,0,0.4938,-48.63931,-27.412203)">
	<path
   clip-rule="evenodd"
   d="m 220.152,156.65 c -5.044,-2.756 -27.82,-21.317 -28.269,-21.859 4.877,3.884 26.674,17.397 28.269,21.859 z"
   id="path450"
   inkscape:connector-curvature="0"
   style="fill-rule:evenodd" />
</g>
<g
   id="g452"
   transform="matrix(0.4938,0,0,0.4938,-48.63931,-27.412203)">
	<path
   clip-rule="evenodd"
   d="m 295.378,175.105 c -5.267,3.799 -36.793,19.226 -37.639,19.479 6.638,-3.327 31.43,-19.29 37.639,-19.479 z"
   id="path454"
   inkscape:connector-curvature="0"
   style="fill-rule:evenodd" />
</g>
<g
   id="g456"
   transform="matrix(0.4938,0,0,0.4938,-48.63931,-27.412203)">
	<path
   clip-rule="evenodd"
   d="m 259.804,210.786 c 0.854,7.785 -2.122,47.9 -2.379,48.834 0.537,-8.517 -1.359,-43.458 2.379,-48.834 z"
   id="path458"
   inkscape:connector-curvature="0"
   style="fill-rule:evenodd" />
</g>
<g
   id="g460"
   transform="matrix(0.4938,0,0,0.4938,-48.63931,-27.412203)">
	<path
   clip-rule="evenodd"
   d="m 264.464,189.412 c -5.348,-3.424 -28.782,-25.428 -29.223,-26.05 5.028,4.615 27.946,21.125 29.223,26.05 z"
   id="path462"
   inkscape:connector-curvature="0"
   style="fill-rule:evenodd" />
</g>
<g
   id="g464"
   transform="matrix(0.4938,0,0,0.4938,-48.63931,-27.412203)">
	<path
   clip-rule="evenodd"
   d="m 195.495,109.084 c -1.326,1.351 -9.177,6.844 -9.386,6.935 1.654,-1.185 7.871,-6.864 9.386,-6.935 z"
   id="path466"
   inkscape:connector-curvature="0"
   style="fill-rule:evenodd" />
</g>
<g
   id="g468"
   transform="matrix(0.4938,0,0,0.4938,-48.63931,-27.412203)">
	<path
   clip-rule="evenodd"
   d="m 224.893,171.904 c -2.521,-1.456 -13.711,-11.041 -13.925,-11.317 2.397,2.008 13.237,9.09 13.925,11.317 z"
   id="path470"
   inkscape:connector-curvature="0"
   style="fill-rule:evenodd" />
</g>
<g
   id="g472"
   transform="matrix(0.4938,0,0,0.4938,-48.63931,-27.412203)">
	<path
   clip-rule="evenodd"
   d="m 279.196,171.254 c -2.258,1.838 -15.199,8.88 -15.534,8.983 2.731,-1.526 13.209,-9.133 15.534,-8.983 z"
   id="path474"
   inkscape:connector-curvature="0"
   style="fill-rule:evenodd" />
</g>
<g
   id="g476"
   transform="matrix(0.4938,0,0,0.4938,-48.63931,-27.412203)">
	<path
   clip-rule="evenodd"
   d="m 214.653,207.768 c 0.137,5.181 5.627,30.837 5.876,31.409 -1.103,-5.46 -2.973,-28.44 -5.876,-31.409 z"
   id="path478"
   inkscape:connector-curvature="0"
   style="fill-rule:evenodd" />
</g>
<g
   id="g480"
   transform="matrix(0.4938,0,0,0.4938,-48.63931,-27.412203)">
	<path
   clip-rule="evenodd"
   d="m 217.064,229.279 c 0.07,2.674 2.905,15.919 3.034,16.214 -0.57,-2.819 -1.535,-14.682 -3.034,-16.214 z"
   id="path482"
   inkscape:connector-curvature="0"
   style="fill-rule:evenodd" />
</g>
<g
   id="g484"
   transform="matrix(0.4938,0,0,0.4938,-48.63931,-27.412203)">
	<path
   clip-rule="evenodd"
   d="m 336.152,127.44 c -4.979,1.441 -28.416,13.235 -28.906,13.62 5.005,-2.447 26.767,-10.06 28.906,-13.62 z"
   id="path486"
   inkscape:connector-curvature="0"
   style="fill-rule:evenodd" />
</g>
<g
   id="g488"
   transform="matrix(0.4938,0,0,0.4938,-48.63931,-27.412203)">
	<path
   clip-rule="evenodd"
   d="m 315.947,135.208 c -2.569,0.743 -14.668,6.832 -14.921,7.031 2.583,-1.265 13.819,-5.196 14.921,-7.031 z"
   id="path490"
   inkscape:connector-curvature="0"
   style="fill-rule:evenodd" />
</g>
<g
   id="g492"
   transform="matrix(0.4938,0,0,0.4938,-48.63931,-27.412203)">
	<path
   clip-rule="evenodd"
   d="m 169.5,250.028 c -0.638,5.145 0.964,31.333 1.124,31.935 -0.276,-5.564 1.304,-28.565 -1.124,-31.935 z"
   id="path494"
   inkscape:connector-curvature="0"
   style="fill-rule:evenodd" />
</g>
<g
   id="g496"
   transform="matrix(0.4938,0,0,0.4938,-48.63931,-27.412203)">
	<path
   clip-rule="evenodd"
   d="m 166.675,274.659 c -0.329,2.654 0.498,16.174 0.581,16.485 -0.144,-2.873 0.672,-14.748 -0.581,-16.485 z"
   id="path498"
   inkscape:connector-curvature="0"
   style="fill-rule:evenodd" />
</g>

</svg>