<svg width="120" height="130" xmlns="http://www.w3.org/2000/svg">
 <metadata id="metadata508">image/svg+xml</metadata>
 <g display="inline">
  <title>Layer 1</title>
  <g id="g3" transform="matrix(0.4938 0 0 0.4938 -48.6393 -27.4122)">
   <path clip-rule="evenodd" d="m263.126221,114.231445c8.813995,-2.006996 16.910004,7.044006 26.363007,8.388c-9.050995,2.245003 -16.856018,-7.097 -26.363007,-8.388z" id="path5" fill-rule="evenodd"/>
  </g>
  <g id="g7" transform="matrix(0.4938 0 0 0.4938 -48.6393 -27.4122)">
   <path clip-rule="evenodd" d="m131.310211,127.413452c3.269989,-0.873001 2.412003,2.380997 4.792999,2.395996c-0.192993,1.404999 -2.184998,1.011002 -3.595001,1.19899c-0.220001,1.019012 0.468018,1.130005 1.197998,1.198013c-1.089996,3.252991 -4.199005,-1.221008 -5.991997,-1.198013c0.134003,-2.263 3.963005,-0.830994 3.596001,-3.594986z" id="path9" fill-rule="evenodd"/>
  </g>
  <g id="g11" transform="matrix(0.4938 0 0 0.4938 -48.6393 -27.4122)">
   <path clip-rule="evenodd" d="m331.431213,138.198456c1.985016,1.677994 1.985016,11.502991 0,13.181992c0.786011,-6.018997 -1.505981,-9.671997 0,-13.181992z" id="path13" fill-rule="evenodd"/>
  </g>
  <g id="g15" transform="matrix(0.4938 0 0 0.4938 -48.6393 -27.4122)">
   <path clip-rule="evenodd" d="m230.176208,106.388451c0.362991,5.377998 -3.886993,50.18 -0.602997,55.775993c-5.360992,-1.894989 -0.529999,-50.596992 0.602997,-55.775993z" id="path17" fill-rule="evenodd"/>
  </g>
  <g id="g19" transform="matrix(0.4938 0 0 0.4938 -48.6393 -27.4122)">
   <path clip-rule="evenodd" d="m215.19223,200.512451c-0.154999,1.755997 -2.744034,3.175003 -2.396011,8.388c-2.809006,2.32399 -0.201019,-7.291 0,-9.587006c2.50499,-0.507004 3.172989,0.822006 4.793991,1.199005c-0.296997,1.505997 -2.382996,1.209 -2.39798,0z" id="path21" fill-rule="evenodd"/>
  </g>
  <g id="g23" transform="matrix(0.4938 0 0 0.4938 -48.6393 -27.4122)">
   <path clip-rule="evenodd" d="m211.598236,211.296448c2.554993,6.181 1.187988,18.740997 0,25.166c-3.037018,-3.287994 -1.127014,-18.481995 0,-25.166z" id="path25" fill-rule="evenodd"/>
  </g>
  <g id="g31" transform="matrix(0.4938 0 0 0.4938 -48.6393 -27.4122)">
   <path clip-rule="evenodd" d="m209.066223,263.643433c2.773987,4.813995 0.415985,14.764008 1.197998,21.570007c-4.390991,-2.703003 -2.582016,-16.973999 -1.197998,-21.570007z" id="path33" fill-rule="evenodd"/>
  </g>
  <g id="g51" transform="matrix(0.4938 0 0 0.4938 -48.6393 -27.4122)">
   <path clip-rule="evenodd" d="m229.573212,65.100449c4.403015,0.389 6.630005,2.956001 10.783997,3.595001c-1.836014,6.408997 -11.360992,-1.719002 -14.379974,2.396996c-3.674011,-1.177002 1.376984,-3.196999 1.197998,-4.792999c-0.867004,3 6.450974,2.468002 10.785004,3.595001c-0.247025,-4.147003 -8.896027,0.108002 -8.387024,-4.793999z" id="path53" fill-rule="evenodd"/>
  </g>
  <g id="g55" transform="matrix(0.4938 0 0 0.4938 -48.6393 -27.4122)">
   <path clip-rule="evenodd" d="m252.341202,75.885452c-2.659988,1.799995 -7.583969,-4.354004 -13.181992,-3.595001c2.873016,-5.418007 9.591995,2.167999 13.181992,3.595001z" id="path57" fill-rule="evenodd"/>
  </g>
  <g id="g59" transform="matrix(0.4938 0 0 0.4938 -48.6393 -27.4122)">
   <path clip-rule="evenodd" d="m221.185211,68.69545c-8.205994,6.573997 -21.083008,8.475998 -31.156982,13.181999c5.153992,-4.843002 19.664001,-10.686005 31.156982,-13.181999z" id="path61" fill-rule="evenodd"/>
  </g>
  <g id="g63" transform="matrix(0.4938 0 0 0.4938 -48.6393 -27.4122)">
   <path clip-rule="evenodd" d="m228.374237,77.08345c1.935974,-0.336998 2.062988,1.132996 3.595963,1.198997c-0.259003,5.575005 -0.05397,21.339005 -4.793991,26.362999c3.319,-8.910995 -4.71698,-21.638 1.198029,-27.561996zm1.198975,17.974998c-0.311996,-6.303001 0.818024,-11.165001 2.395996,-15.578003c-1.649994,0.052002 -2.631989,-0.563995 -3.595978,-1.197998c-1.985992,4.345001 -0.171997,14.764999 1.199982,16.776001z" id="path65" fill-rule="evenodd"/>
  </g>
  <g id="g67" transform="matrix(0.4938 0 0 0.4938 -48.6393 -27.4122)">
   <path clip-rule="evenodd" d="m252.341202,87.868446c-4.082993,5.903 -9.914993,10.056999 -11.982986,17.974998c-1.610992,-7.204994 0.888,-22.964996 11.982986,-17.974998zm-9.585999,10.785004c1.173019,-4.418999 5.247009,-5.937004 7.189011,-9.586998c-2.265991,0.268997 -2.643982,-1.351006 -4.792999,-1.198006c-0.576004,3.087006 -4.832001,8.658005 -2.396011,10.785004z" id="path69" fill-rule="evenodd"/>
  </g>
  <g id="g71" transform="matrix(0.4938 0 0 0.4938 -48.6393 -27.4122)">
   <path clip-rule="evenodd" d="m258.333221,99.851448c5.903992,-4.338997 5.097992,8.221001 -1.197998,3.595001c-0.104004,-1.699997 -0.199005,-3.392998 1.197998,-3.595001z" id="path73" fill-rule="evenodd"/>
  </g>
  <g id="g75" transform="matrix(0.4938 0 0 0.4938 -48.6393 -27.4122)">
   <path clip-rule="evenodd" d="m309.861237,113.033447c-0.21402,-1.032997 17.359985,12.645004 15.577972,13.181999c-4.583984,-0.487999 -10.392975,-9.375999 -15.577972,-13.181999z" id="path77" fill-rule="evenodd"/>
  </g>
  <g id="g79" transform="matrix(0.4938 0 0 0.4938 -48.6393 -27.4122)">
   <path clip-rule="evenodd" d="m197.218216,114.231445c3.521011,-0.944 17.845016,7.586006 21.569977,14.380005c-1.228958,-1.347 -15.491974,-9.939003 -21.569977,-14.380005z" id="path81" fill-rule="evenodd"/>
  </g>
  <g id="g83" transform="matrix(0.4938 0 0 0.4938 -48.6393 -27.4122)">
   <path clip-rule="evenodd" d="m324.241211,129.809448c3.335999,-0.540009 -0.938995,6.531998 2.396027,5.991989c-1.284027,3.506012 -13.072021,7.95401 -8.389008,9.587006c-6.440002,2.468002 -20.854004,9.871002 -32.354004,14.380005c11.217987,-11.550003 36.050995,-9.485992 38.346985,-29.959z" id="path85" fill-rule="evenodd"/>
  </g>
  <g id="g87" transform="matrix(0.4938 0 0 0.4938 -48.6393 -27.4122)">
   <path clip-rule="evenodd" d="m120.524208,132.206451c8.963005,1.832001 19.076012,12.871994 27.563011,19.173004c-7.504013,-3.290009 -17.315018,-14.634003 -27.563011,-19.173004z" id="path89" fill-rule="evenodd"/>
  </g>
  <g id="g91" transform="matrix(0.4938 0 0 0.4938 -48.6393 -27.4122)">
   <path clip-rule="evenodd" d="m148.087219,133.405441c3.410004,-2.15799 6.873993,5.867004 11.98201,5.992004c1.466995,5.39801 -8.207016,-5.082001 -11.98201,-5.992004z" id="path93" fill-rule="evenodd"/>
  </g>
  <g id="g95" transform="matrix(0.4938 0 0 0.4938 -48.6393 -27.4122)">
   <path clip-rule="evenodd" d="m124.120216,213.693451c-9.492004,-11.283005 -4.807007,-47.119003 -5.992004,-70.701996c5.169006,16.404999 0.708008,48.817993 3.596008,63.511993c3.12999,1.649994 0.207001,1.057999 2.395996,7.190002z" id="path97" fill-rule="evenodd"/>
  </g>
  <g id="g99" transform="matrix(0.4938 0 0 0.4938 -48.6393 -27.4122)">
   <path clip-rule="evenodd" d="m329.03421,146.586441c-1.019989,0.220001 -1.129974,-0.466995 -1.197998,-1.197998c-13.721985,6.449005 -12.884979,6.64801 -2.395996,-1.197998c2.404999,-0.40799 3.748016,0.24501 3.593994,2.395996z" id="path101" fill-rule="evenodd"/>
  </g>
  <g id="g103" transform="matrix(0.4938 0 0 0.4938 -48.6393 -27.4122)">
   <path clip-rule="evenodd" d="m134.905228,151.380447c3.57399,-3.104996 5.912003,5.220001 9.585983,5.992004c-0.423981,1.877991 -2.109009,-1.048996 -2.395996,1.197998c-3.782013,-1.012009 -3.408997,-6.177994 -7.189987,-7.190002z" id="path105" fill-rule="evenodd"/>
  </g>
  <g id="g107" transform="matrix(0.4938 0 0 0.4938 -48.6393 -27.4122)">
   <path clip-rule="evenodd" d="m326.638214,151.380447c-5.214996,27.380005 1.046021,42.253006 -4.792999,63.512009c-0.010986,0.035995 -1.963989,-1.41301 -2.397003,-1.198013c-1.053986,3.952011 3.078003,7.48201 -1.197998,4.792999c-0.087006,6.058014 1.516998,6.855011 0,11.983002c-1.776978,-3.414993 -1.399994,-8.985001 -4.792999,-10.784988c-5.225006,-0.502014 -11.692993,-2.317001 -14.380005,-3.595001c-8.837982,-4.203003 4.052002,-0.223999 11.983002,1.197998c1.944,-2.050003 3.627014,-4.361008 3.595001,-8.389008c1.882019,0.516006 1.024017,3.770004 4.792999,2.396011c2.598999,0.201996 0.542999,-4.25 1.197998,-5.991013c-2.048981,-0.052994 -3.103973,0.891006 -3.595001,2.396011c-0.886993,-4.505005 6.642029,-5.563004 5.992004,-11.983002c-3.156982,-0.360001 -3.93399,1.658997 -3.595978,4.793991c-3.357025,0.688004 1.980988,-8.662003 1.197998,-13.181992c2.376984,-3.082001 0.763977,5.931992 0,7.188995c3.144989,-11.613007 2.93399,-27.496002 4.793976,-43.139999c-5.225983,1.164993 -8.628998,4.153 -13.181976,5.992004c1.901978,-4.089005 8.242981,-3.740005 10.785004,-7.190002c1.934998,-0.335999 2.062988,1.134003 3.595978,1.199997z" id="path109" fill-rule="evenodd"/>
  </g>
  <g id="g111" transform="matrix(0.4938 0 0 0.4938 -48.6393 -27.4122)">
   <path clip-rule="evenodd" d="m314.654236,151.380447c-2.913025,3.078003 -6.929016,5.054001 -9.587006,8.388c-9.597015,0.651001 7.401978,-5.703003 9.587006,-8.388z" id="path113" fill-rule="evenodd"/>
  </g>
  <g id="g115" transform="matrix(0.4938 0 0 0.4938 -48.6393 -27.4122)">
   <path clip-rule="evenodd" d="m311.060211,157.371445c-5.356995,5.028 -13.020996,7.751007 -20.371979,10.785004c6.376984,-4.007004 13.115997,-7.654999 20.371979,-10.785004z" id="path117" fill-rule="evenodd"/>
  </g>
  <g id="g119" transform="matrix(0.4938 0 0 0.4938 -48.6393 -27.4122)">
   <path clip-rule="evenodd" d="m299.076233,158.57045c-9.203003,4.037003 -12.682007,6.225998 -3.595001,-1.197998c0.962982,0.632996 1.945984,1.248993 3.595001,1.197998z" id="path121" fill-rule="evenodd"/>
  </g>
  <g id="g123" transform="matrix(0.4938 0 0 0.4938 -48.6393 -27.4122)">
   <path clip-rule="evenodd" d="m275.109222,174.148453c0.963989,-0.634003 1.945007,-1.25 3.595001,-1.199005c-10.381989,9.949005 -6.612,33.951996 -4.792999,50.330002c-5.790009,-14.130997 -2.904999,-29.421005 -5.992004,-41.940994c-3.177002,6.786987 -2.608002,13.60199 -3.595001,27.561996c-0.958984,14.944992 -2.653992,-17.865997 0,-21.569c-1.130005,-3.514008 -1.791992,-4.451004 -2.395996,-5.992004c0.503998,-2.690994 6.358002,-0.033005 7.190002,-2.395996c6.057007,-4.684006 8.941986,-11.621002 11.981995,-14.380005c4.013,-3.641998 3.098999,-0.944 1.199005,1.197998c-2.165009,2.440002 -6.416992,5.302002 -7.190002,8.387009z" id="path125" fill-rule="evenodd"/>
  </g>
  <g id="g127" transform="matrix(0.4938 0 0 0.4938 -48.6393 -27.4122)">
   <path clip-rule="evenodd" d="m167.260223,169.354446c-0.664993,-1.319 8.465988,7.210007 10.783997,10.785004c0.664993,1.319992 -8.464996,-7.209 -10.783997,-10.785004z" id="path129" fill-rule="evenodd"/>
  </g>
  <g id="g131" transform="matrix(0.4938 0 0 0.4938 -48.6393 -27.4122)">
   <path clip-rule="evenodd" d="m270.991211,166.688446c0.03302,-1.164993 1.46701,-0.929993 2.396027,-1.197998c-7.041016,5.341003 -16.925018,7.841003 -23.966003,13.182007c1.842987,-4.567001 14.427979,-8.728012 21.569977,-11.984009z" id="path133" fill-rule="evenodd"/>
  </g>
  <g id="g135" transform="matrix(0.4938 0 0 0.4938 -48.6393 -27.4122)">
   <path clip-rule="evenodd" d="m154.279221,156.875443c8.182999,7 16.275009,12.955002 24.650986,22.170013c-2.725006,-3.095001 -16.876984,-10.567001 -24.650986,-22.170013z" id="path137" fill-rule="evenodd"/>
  </g>
  <g id="g139" transform="matrix(0.4938 0 0 0.4938 -48.6393 -27.4122)">
   <path clip-rule="evenodd" d="m276.308228,190.925446c0,-3.195999 0,-6.391998 0,-9.58699c1.781006,1.812988 1.931,5.259995 2.395996,8.388992c6.300995,-0.709 8.755005,2.430008 13.182007,3.595001c-3.09201,1.837997 -8.731018,-4.011993 -15.578003,-2.397003z" id="path141" fill-rule="evenodd"/>
  </g>
  <g id="g143" transform="matrix(0.4938 0 0 0.4938 -48.6393 -27.4122)">
   <path clip-rule="evenodd" d="m157.673218,183.734451c3.855011,-2.158005 -5.10701,6.373001 2.396011,2.395996c-2.012009,3.979996 -7.930008,4.054001 -9.586014,8.389008c-2.218002,-3.471008 5.710999,-7.029999 7.190002,-10.785004z" id="path145" fill-rule="evenodd"/>
  </g>
  <g id="g147" transform="matrix(0.4938 0 0 0.4938 -48.6393 -27.4122)">
   <path clip-rule="evenodd" d="m216.392212,188.527451c0.133987,-2.296997 4.012024,1.408005 7.189011,0c3.984985,1.056992 -8.634995,1.483994 -2.396011,4.793991c-0.270996,1.726013 -3.576996,0.418015 -3.595001,2.396011c-1.679993,-0.423004 -0.103973,-2.109009 1.197983,-2.396011c-0.164963,-2.230988 -0.788956,-4.00499 -2.395981,-4.793991z" id="path149" fill-rule="evenodd"/>
  </g>
  <g id="g151" transform="matrix(0.4938 0 0 0.4938 -48.6393 -27.4122)">
   <path clip-rule="evenodd" d="m230.771194,190.925446c0.957001,2.604004 -5.707962,7.837006 -9.58696,9.587006c-3.741013,-1.040009 9.244995,-4.776001 9.58696,-9.587006z" id="path153" fill-rule="evenodd"/>
  </g>
  <g id="g155" transform="matrix(0.4938 0 0 0.4938 -48.6393 -27.4122)">
   <path clip-rule="evenodd" d="m173.621216,201.516449c-5.113007,3.764999 -34.055008,17.753006 -34.794006,17.942001c6.110016,-3.039001 29.738998,-18.516006 34.794006,-17.942001z" id="path157" fill-rule="evenodd"/>
  </g>
  <g id="g159" transform="matrix(0.4938 0 0 0.4938 -48.6393 -27.4122)">
   <path clip-rule="evenodd" d="m278.704224,200.512451c-1.626007,-0.371002 -0.993988,-3 -1.197998,-4.794006c3.410004,2.165009 9.921997,11.104004 11.983002,13.182007c10.105988,10.188004 -10.289001,-9.557999 -10.785004,-8.388z" id="path161" fill-rule="evenodd"/>
  </g>
  <g id="g163" transform="matrix(0.4938 0 0 0.4938 -48.6393 -27.4122)">
   <path clip-rule="evenodd" d="m230.771194,196.916443c4.879044,1.144012 -7.706985,10.269012 -11.983002,5.992004c-0.308975,-0.307999 12.990036,-1.188995 11.983002,-5.992004z" id="path165" fill-rule="evenodd"/>
  </g>
  <g id="g167" transform="matrix(0.4938 0 0 0.4938 -48.6393 -27.4122)">
   <path clip-rule="evenodd" d="m196.019226,201.709442c7.822998,6.563004 10.523987,28.618011 9.587006,47.934006c-1.256012,2.408005 -0.574005,12.916 -2.397003,10.784988c0.540985,-6.53299 -2.136002,-9.847992 -1.197998,-16.776993c4.541992,8.96701 0.543976,-1.327988 0,-5.991989c-1.208008,-10.363007 -1.113007,-34.319 -5.992004,-35.950012z" id="path169" fill-rule="evenodd"/>
  </g>
  <g id="g171" transform="matrix(0.4938 0 0 0.4938 -48.6393 -27.4122)">
   <path clip-rule="evenodd" d="m200.81221,201.709442c-0.936005,-2.454987 4.468002,7.876999 4.794022,11.984009c-0.780029,4.171997 -3.882019,-8.462997 -4.794022,-11.984009z" id="path173" fill-rule="evenodd"/>
  </g>
  <g id="g175" transform="matrix(0.4938 0 0 0.4938 -48.6393 -27.4122)">
   <path clip-rule="evenodd" d="m326.638214,205.30545c-3.618988,12.384003 -1.078003,24.686005 -8.388977,34.751999c3.297974,-4.541 1.934998,-16.503006 7.189972,-33.554001c0.462006,-1.5 0.22702,-9.382996 1.199005,-1.197998z" id="path177" fill-rule="evenodd"/>
  </g>
  <g id="g183" transform="matrix(0.4938 0 0 0.4938 -48.6393 -27.4122)">
   <path clip-rule="evenodd" d="m301.473236,223.279449c3.948975,4.220001 6.496979,8.570999 4.792999,15.578995c-8.652008,6.462997 -8.13501,9.001999 -11.983002,11.98201c-8.643005,6.698975 4.254974,-5.088013 5.992004,-7.189011c2.884979,-3.48999 7.603973,-12.597992 1.197998,-20.371994z" id="path185" fill-rule="evenodd"/>
  </g>
  <g id="g187" transform="matrix(0.4938 0 0 0.4938 -48.6393 -27.4122)">
   <path clip-rule="evenodd" d="m300.274231,247.246445c0.942993,2.984009 -6.522003,7.824005 -10.785004,9.585983c7.367004,3.551025 32.837006,-26.935974 14.380005,-10.784973c-1.020996,-0.521011 9.890991,-9.061005 11.983002,-14.379013c-0.371002,12.471008 -21.212006,27.443008 -28.76001,28.759995c-1.473999,-2.557007 8.38501,-7.288986 13.182007,-13.181992z" id="path189" fill-rule="evenodd"/>
  </g>
  <g id="g191" transform="matrix(0.4938 0 0 0.4938 -48.6393 -27.4122)">
   <path clip-rule="evenodd" d="m124.147209,234.967453c1.31601,-3.021011 11.851021,7.972992 8.788002,6.696991c-2.957001,-2.190002 -5.480003,-5.049988 -8.788002,-6.696991z" id="path193" fill-rule="evenodd"/>
  </g>
  <g id="g195" transform="matrix(0.4938 0 0 0.4938 -48.6393 -27.4122)">
   <path clip-rule="evenodd" d="m321.845215,242.454453c0.337006,2.140991 -1.132996,2.459 -1.199005,1.196991c-1.659973,1.934006 -3.395996,3.794998 -4.792999,5.992004c-1.845001,-1.537003 2.338013,-7.179993 5.992004,-7.188995z" id="path197" fill-rule="evenodd"/>
  </g>
  <g id="g199" transform="matrix(0.4938 0 0 0.4938 -48.6393 -27.4122)">
   <path clip-rule="evenodd" d="m312.258209,249.643448c-2.868988,6.655991 -10.477997,10.874985 -16.776001,15.577988c-23.375977,17.453003 -51.187988,32.688995 -79.089996,44.338013c21.395981,2.218994 37.832001,-10.896027 52.72702,-19.174011c-13.294022,11.561005 -40.893005,24.778992 -58.718994,20.372986c-9.122009,-2.255981 0.517975,0.22702 3.594971,-1.198975c10.07901,-4.666016 14.396027,-6.344025 20.372009,-11.982025c0.971008,0.22702 1.194,1.201019 2.395996,1.197021c-0.507996,-3.201019 4.529999,-0.164001 5.991989,-5.990021c1.796997,2.020996 21.002029,-7.983978 28.760025,-15.579987c9.747009,-1.640991 10.570984,-9.350006 17.975006,-9.585999c-3.014008,-3.283997 18.057983,-10.722992 22.767975,-17.974991z" id="path201" fill-rule="evenodd"/>
  </g>
  <g id="g203" transform="matrix(0.4938 0 0 0.4938 -48.6393 -27.4122)">
   <path clip-rule="evenodd" d="m307.464233,261.625427c-6.706024,4.942993 -23.855011,20.035004 -35.949005,27.563019c6.578979,-5.070007 23.496002,-20.393005 35.949005,-27.563019z" id="path205" fill-rule="evenodd"/>
  </g>
  <g id="g207" transform="matrix(0.4938 0 0 0.4938 -48.6393 -27.4122)">
   <path clip-rule="evenodd" d="m270.316223,270.014435c-16.195007,10.170013 -32.946991,19.778992 -50.329987,28.76001c11.024994,-9.203003 26.444962,-13.932007 33.552963,-23.96701c3.210037,2.139008 -4.652969,3.242004 -4.792984,5.992004c8.979004,-2.171997 13.052002,-10.582001 21.570007,-10.785004z" id="path209" fill-rule="evenodd"/>
  </g>
  <g id="g211" transform="matrix(0.4938 0 0 0.4938 -48.6393 -27.4122)">
   <path clip-rule="evenodd" d="m190.027222,274.807434c2.23999,-2.660004 -0.533997,7.472992 -2.396011,8.389008c-6.479996,-0.464996 -7.35199,-5.21701 -1.197983,-1.197021c3.757996,-1.431976 0.412994,-4.103973 3.593994,-7.191986z" id="path213" fill-rule="evenodd"/>
  </g>
  <g id="g219" transform="matrix(0.4938 0 0 0.4938 -48.6393 -27.4122)">
   <path clip-rule="evenodd" d="m170.854218,283.196442c-0.271011,-0.97702 9.268005,8.050995 11.983002,11.983978c0.270996,0.97702 -9.26799,-8.050995 -11.983002,-11.983978z" id="path221" fill-rule="evenodd"/>
  </g>
  <g id="g227" transform="matrix(0.4938 0 0 0.4938 -48.6393 -27.4122)">
   <path clip-rule="evenodd" d="m212.796219,295.18042c3.151016,-0.35498 0.943008,4.64801 4.793991,3.594025c1.35202,2.692993 -9.987,-0.654022 -7.189972,-7.189026c4.491959,-0.513977 0.074982,7.199005 2.395981,3.595001z" id="path229" fill-rule="evenodd"/>
  </g>
  <g id="g231" transform="matrix(0.4938 0 0 0.4938 -48.6393 -27.4122)">
   <path clip-rule="evenodd" d="m194.821228,304.766418c3.776001,-0.665985 13.269989,5.016022 19.173004,0c3.415985,2.79303 -15.703003,5.457001 -19.173004,0z" id="path233" fill-rule="evenodd"/>
  </g>
  <g id="g247" transform="matrix(0.4938 0 0 0.4938 -48.6393 -27.4122)">
   <path d="m315.864227,118.300446c-6.235992,-5.800995 -63.214996,-41.629997 -63.789001,-41.991997l0.531006,-0.847c2.350983,1.476997 57.634003,36.240997 63.938995,42.106003l-0.681,0.732994z" id="path249"/>
  </g>
  <g id="g251" transform="matrix(0.4938 0 0 0.4938 -48.6393 -27.4122)">
   <path d="m204.793213,308.136444c-3.988983,0 -17.715988,-1.165009 -27.835983,-16.257996c-14.05101,-20.953003 -59.458015,-61.001007 -59.915016,-61.403l-0.367004,-0.322006l0.313004,-0.373993c0.085007,-0.100998 8.421997,-10.190002 4.927002,-17.973999c-2.154999,-4.798004 -2.166992,-20.068008 -2.177994,-34.835999c-0.009003,-10.811996 -0.016998,-21.02301 -0.859009,-26.290009c-2.002991,-12.521988 1.072998,-18.462006 1.205002,-18.707993l0.106003,-0.136002c0.520004,-0.46701 52.353996,-46.810997 89.034019,-58.211998l0.296982,0.954994c-35.849991,11.143005 -86.381996,55.966003 -88.590996,57.936996c-0.338013,0.712006 -2.891006,6.586014 -1.064011,18.006012c0.855011,5.343994 0.863007,15.595001 0.872009,26.446991c0.011002,14.662003 0.022995,29.824005 2.089996,34.427002c3.395996,7.561996 -3.210999,16.662994 -4.766998,18.645996c4.328995,3.835007 46.270988,41.213989 59.726006,61.279999c11.571991,17.256989 27.871002,15.792999 28.033981,15.781006l0.103012,0.993988c-0.024994,0.003998 -0.425995,0.040009 -1.130005,0.040009z" id="path253"/>
  </g>
  <g id="g255" transform="matrix(0.4938 0 0 0.4938 -48.6393 -27.4122)">
   <path d="m325.922211,206.633453l-0.964996,-0.26001c4.007019,-14.875 6.393005,-57.373001 6.416016,-57.800995l0.997986,0.054993c-0.02298,0.429001 -2.414978,43.032013 -6.449005,58.006012z" id="path257"/>
  </g>
  <g id="g259" transform="matrix(0.4938 0 0 0.4938 -48.6393 -27.4122)">
   <path d="m198.668213,302.459442c-5.505005,0 -12.275986,-5.210022 -12.604004,-5.464996l0.614014,-0.789001c0.087006,0.067993 8.845978,6.807983 14.021988,4.924988c3.746017,-1.362 3.220016,-25.664001 2.009003,-40.661987l0.996994,-0.080017c0.326996,4.048004 3.029022,39.610992 -2.664978,41.682007c-0.743011,0.270996 -1.544006,0.389008 -2.373016,0.389008z" id="path261"/>
  </g>
  <g id="g263" transform="matrix(0.4938 0 0 0.4938 -48.6393 -27.4122)">
   <path d="m196.801208,299.217438c-4.322998,0 -9.576004,-6.022003 -9.807983,-6.290009l0.756989,-0.653992c0.056,0.063995 5.613007,6.464996 9.511002,5.912994c1.141006,-0.15799 2.009995,-0.910004 2.656998,-2.298004l0.906006,0.424011c-0.791992,1.695007 -1.944016,2.658997 -3.427002,2.86499c-0.194992,0.027008 -0.395004,0.040009 -0.596008,0.040009z" id="path265"/>
  </g>
  <g id="g273" transform="matrix(0.4938 0 0 0.4938 -48.6393 -27.4122)">
   <path clip-rule="evenodd" d="m121.289223,223.183441c0,0 -7.333008,5.167007 -3.072006,8.864014c5.574005,4.835999 9.906013,7.802994 9.906013,7.802994c0,0 -11.668022,-9.5 -6.834007,-16.667007z" id="path275" fill-rule="evenodd"/>
  </g>
  <g id="g313" transform="matrix(0.4938 0 0 0.4938 -48.6393 -27.4122)">
   <path d="m302.455231,146.683441c-0.242004,0 -0.455017,-0.175995 -0.493011,-0.422989c-0.041992,-0.272003 0.144989,-0.528 0.416992,-0.570999c21.778015,-3.388 21.596008,-19.315002 21.577026,-19.992004c-0.005005,-0.18 0.086975,-0.348 0.23999,-0.441002c0.153992,-0.094002 0.345001,-0.097 0.502991,-0.009995c3.882996,2.156998 7.5,14.038002 7.651001,14.542992c0.080017,0.264008 -0.070007,0.542999 -0.333984,0.623001c-0.268005,0.080002 -0.542999,-0.069992 -0.623016,-0.334c-0.033997,-0.112 -3.188995,-10.481003 -6.481995,-13.445999c-0.315002,3.709 -2.821014,17.003006 -22.377991,20.046005c-0.026001,0.003998 -0.052002,0.00499 -0.078003,0.00499z" id="path315"/>
  </g>
  <g id="g317" transform="matrix(0.4938,0,0,0.4938,-48.63931,-27.412203)">
   <path clip-rule="evenodd" stroke-miterlimit="10" d="m169.332993,198.167007" id="path319" stroke-linejoin="round" stroke-linecap="round" stroke="#000000" fill="none"/>
  </g>
  <g id="g321" transform="matrix(0.4938 0 0 0.4938 -48.6393 -27.4122)">
   <path clip-rule="evenodd" d="m124.722221,245.177444c-5.292999,-2.96199 -19.619003,-16.582001 -12.290009,-19.463989c-9.160995,3.602997 3.897995,16.034988 12.290009,19.463989z" id="path323" fill-rule="evenodd"/>
  </g>
  <g id="g325" transform="matrix(0.4938 0 0 0.4938 -48.6393 -27.4122)">
   <path clip-rule="evenodd" d="m124.803215,201.993454c-2.929993,-7.988007 -1.201004,-31.486008 -2.296005,-45.49501c2.932007,7.988007 1.203003,31.487 2.296005,45.49501z" id="path327" fill-rule="evenodd"/>
  </g>
  <g id="g329" transform="matrix(0.4938 0 0 0.4938 -48.6393 -27.4122)">
   <path clip-rule="evenodd" d="m126.709221,181.569443c-2.688004,-1.707993 -0.959,-18.626999 -1.833008,-26.326996c2.688004,1.710007 0.958008,18.628006 1.833008,26.326996z" id="path331" fill-rule="evenodd"/>
  </g>
  <g id="g333" transform="matrix(0.4938 0 0 0.4938 -48.6393 -27.4122)">
   <path clip-rule="evenodd" d="m124.789223,151.649445c-2.049011,3.248001 -1.041,-6.998993 -1.430008,-9.554993c2.048996,-3.247009 1.042007,6.998001 1.430008,9.554993z" id="path335" fill-rule="evenodd"/>
  </g>
  <g id="g337" transform="matrix(0.4938 0 0 0.4938 -48.6393 -27.4122)">
   <path clip-rule="evenodd" d="m127.156212,150.393448c-2.048996,3.246994 -1.041992,-6.998993 -1.429993,-9.556c2.048996,-3.246994 1.042999,6.998993 1.429993,9.556z" id="path339" fill-rule="evenodd"/>
  </g>
  <g id="g341" transform="matrix(0.4938 0 0 0.4938 -48.6393 -27.4122)">
   <path clip-rule="evenodd" d="m165.418213,103.085449c5.601013,-6.404999 27.045013,-16.167999 38.80899,-23.852997c-5.600998,6.406998 -27.044983,16.169998 -38.80899,23.852997z" id="path343" fill-rule="evenodd"/>
  </g>
  <g id="g345" transform="matrix(0.4938 0 0 0.4938 -48.6393 -27.4122)">
   <path clip-rule="evenodd" d="m190.250229,91.954445c0.207993,-3.178993 15.878983,-9.782997 22.214981,-14.246994c-0.207977,3.179001 -15.880997,9.782997 -22.214981,14.246994z" id="path347" fill-rule="evenodd"/>
  </g>
  <g id="g349" transform="matrix(0.4938 0 0 0.4938 -48.6393 -27.4122)">
   <path clip-rule="evenodd" d="m209.577209,78.906448c-3.832977,-0.238998 5.638,-4.274002 7.695007,-5.842003c3.832001,0.240005 -5.639008,4.274002 -7.695007,5.842003z" id="path351" fill-rule="evenodd"/>
  </g>
  <g id="g353" transform="matrix(0.4938 0 0 0.4938 -48.6393 -27.4122)">
   <path clip-rule="evenodd" d="m119.33622,209.839447c-4.564011,1.261002 1.080002,7.811996 -0.307999,11.300003c1.798996,0.684998 0.291992,-2.337997 2.32399,-1.334c1.248001,-3.710007 -3.263992,-6.255997 -2.015991,-9.966003z" id="path355" fill-rule="evenodd"/>
  </g>
  <g id="g361" transform="matrix(0.4938 0 0 0.4938 -48.6393 -27.4122)">
   <path clip-rule="evenodd" d="m232.645233,99.576447c2.126968,-3.196999 0.872986,7.021004 1.198975,9.587006c-2.125992,3.195999 -0.871979,-7.021004 -1.198975,-9.587006z" id="path363" fill-rule="evenodd"/>
  </g>
  <g id="g365" transform="matrix(0.4938 0 0 0.4938 -48.6393 -27.4122)">
   <g id="g367">
    <g id="layer1_2_">
     <g id="path2900_2_">
      <path d="m204.446228,226.759445c-5.717026,-4.494995 -11.817017,-8.811996 -15.983002,-14.87999c-8.770996,-10.707001 -15.52301,-23.105011 -20.141006,-36.132004c-2.793015,-8.470001 -3.748001,-17.550003 -7.343002,-25.695999c-3.763,-5.917007 0.64299,-12.383011 7.123993,-14.263c2.881012,-0.553009 7.957001,-3.272003 1.835007,-1.331009c-5.491013,4.029999 -6.023987,-3.656006 -0.395004,-4.139999c3.843018,-0.509003 5.256989,-3.655998 3.945007,-6.486992c-4.126007,-2.688004 9.997009,-5.641006 2.891006,-9.656006c-7.403,-7.986 10.353989,-9.521996 5.973984,-0.449997c-1.050995,6.970001 12.403,-1.278999 9.285019,6.773003c3.171982,3.868996 11.88298,0.881996 11.664993,6.305c4.623993,0.317993 6.212006,4.208 10.549988,4.506996c4.496002,2.030991 12.647995,3.630997 14.181992,8.697998c-4.462982,3.535004 -14.794968,-7.294006 -15.29097,2.479996c1.347992,14.444 1.003998,29.326004 6.289001,43.082001c2.501968,8.332001 8.556976,14.889008 14.031982,21.374008c5.237,6.352005 12.32901,10.826996 19.559021,14.589005c6.339996,2.992996 13.177979,4.974991 20.087982,6.222992c2.804993,-2.147003 7.752014,-10.119003 12.125,-6.755997c0.213013,3.776001 -8.678009,7.895004 -0.411987,7.477005c4.847992,-1.463013 8.210999,3.751999 12.207001,-0.953003c3.681976,4.362 15.294983,-2.783997 12.679993,6.126999c-3.542999,2.28299 -8.707001,0.901993 -12.257996,4.046997c-5.843994,-2.919998 -10.498016,2.613007 -16.972992,1.914001c-7.19101,1.285004 -14.504028,1.811005 -21.79303,1.817993c-11.95697,-0.946991 -24.17099,-1.343994 -35.544983,-5.505997c-6.411987,-1.863998 -12.666016,-5.511993 -18.296997,-9.164001l0,0zm10.097992,4.378006c6.25798,2.705002 12.377014,5.556992 19.235977,6.417999c10.878036,1.513992 22.11702,3.837997 33.035019,1.716995c-4.938995,-2.231995 -10.052979,0.871002 -14.975006,-1.595993c-5.903992,1.269989 -12.23999,-0.322006 -18.242981,-1.111008c-6.827011,-3.037003 -14.194,-5.128998 -20.585999,-9.075989c-7.991028,-2.919006 4.130005,3.741989 6.28598,4.280991c4.993011,2.835999 -5.488983,-1.453003 -6.968994,-2.630005c-4.182022,-2.345993 -4.714996,-1.856995 -0.414001,0.525009c0.865982,0.507004 1.722015,1.037994 2.630005,1.472l0,0zm-11.905991,-8.417007c6.062988,2.246002 -0.027023,-4.263992 -2.807022,-3.886002c-1.22998,-2.134995 -4.703003,-3.485992 -2.251984,-4.631989c-4.406006,1.531998 -4.617004,-5.815002 -6.688995,-4.768005c-4.660004,-1.470993 -1.813004,-6.684998 -7.363007,-9.888992c-0.51001,-3.373001 -5.518005,-6.300003 -7.115021,-11.388c-0.707001,-2.608002 -5.660995,-10.090012 -2.615997,-3.123001c2.590027,6.700989 7.147018,12.442001 10.942017,18.179001c2.945007,5.457993 6.428009,11.164993 11.790985,14.569c1.807022,1.735992 3.556015,4.39299 6.109024,4.937988l0,0zm-17.46701,-19.177002m24.727005,21.87001m3.296982,1.201004m4.115005,1.719986m7.064026,3.936005m-13.562027,-9.457001m3.092026,1.546005m15.448975,9.638992c2.484009,1.568008 14.505005,3.434006 6.97702,0.643005c-1.26001,0.268005 -13.95401,-3.591995 -6.97702,-0.643005zm-24.523987,-19.100998m7.191986,4.193008m6.049011,3.709991m-16.169998,-11.085999c2.913986,2.231995 11.755997,0.281006 4.462997,-1.337006c-3.31601,-1.768997 -10.793015,-2.978989 -5.69899,1.06601l1.235992,0.270996l0,0zm20.262985,12.363998m-6.154999,-4.893997c7.128021,2.016998 -5.992981,-4.507004 -1.755981,-0.742996l0.936981,0.425003l0.819,0.317993l0,0zm12.347015,7.134995c6.75,0.06601 -6.096024,-0.927994 0,0l0,0zm-29.050995,-18.513m40.466965,24.919006m-28.948975,-17.867996m-10.876999,-7.841003m-12.882996,-8.328003m33.820984,21.468002m21.058014,12.919006m-22.916992,-14.84201m-15.687012,-9.940994m26.53299,16.485992m-13.801971,-9.369995c5.177979,0.669998 -6.15802,-3.520996 -1.133026,-0.373993l1.133026,0.373993l0,0zm17.991974,11.063995c4.831985,-2.888 3.242004,6.764999 8.19899,0.81601c4.893021,-3.572006 -4.225967,4.416 1.806015,0.636993c4.362,-2.917999 10.80098,1.380997 14.872009,2.783005c2.924011,-0.141006 5.768005,2.528992 8.769989,0.906006c5.774994,-1.556015 -11.290985,-2.308014 -6.819977,-5.06601c-5.28302,1.535004 -9.18602,-1.834991 -11.787018,-5.218002c-5.923004,-1.369003 -12.778992,-4.399994 -15.738007,-9.644989c-1.204987,-1.96701 1.744019,0.275986 -1.035004,-2.94101c-3.576004,-3.177002 -5.360992,-6.785004 -7.755981,-10.64299c-2.865005,-1.528 -3.199005,-6.024002 -3.487,-0.153c0.02298,-3.705002 -3.458023,-6.200012 -4.310013,-5.164001c-0.016006,-3.572006 3.72699,-1.781006 1.108017,-4.423004c-0.563019,-3.699997 -2.421021,-7.556 -2.976013,-11.737c-0.86702,-2.014999 -0.124008,-6.326004 -2.959991,-1.766998c-1.032013,4.817001 -0.34201,-5.924011 1.261993,-2.378998c2.112,-3.611008 -0.753998,-3.190002 -0.869995,-2.688004c1.370987,-3.050003 0.869995,-7.374008 -0.360992,-5.723007c0.731979,-3.231995 1.153976,-11.895996 -1.097031,-10.358994c1.368027,-3.380005 2.593033,-15.462006 -3.334976,-10.856995c-2.402008,0.033997 -6.559998,0.872986 -8.525024,1.85199c6.162018,3.395996 -0.618988,1.223999 -3.126984,0.686996c-0.325989,3.142014 -2.815002,1.783005 -5.916,1.814011c4.957001,0.610001 -2.416,5.069992 -5.262009,3.338989c-3.692993,1.768005 3.188019,6.175003 0.072998,7.536011c0.384018,2.056 -5.658997,-0.740997 -5.184998,4.000992c-3.585999,-1.506989 -0.493988,5.632004 1.30101,3.214005c6.102005,1.654999 4.294998,5.417999 4.44899,8.990997c-0.993988,2.082001 -4.903992,-4.895996 -0.869995,-4.574005c-3.184998,-5.169998 -3.522995,-1.866989 -6.166992,0.534012c-0.617004,0.175995 6.747986,3.417999 2.127991,5.024002c4.062988,0.625 4.179016,4.184998 5.008011,6.435989c2.442001,2.548004 1.940994,-2.811996 4.863998,0.248001c-1.848022,-2.724991 -9.799011,-7.677994 -3.399994,-6.089996c-0.029999,-2.740005 -1.154022,-4.953003 0.805984,-4.897995c1.944016,-3.520004 -2.031998,8.668991 2.345016,4.19899c1.212982,-0.526993 1.51297,-3.520996 3.689972,0.284012c3.163025,3.112 1.141998,5.367996 -3.319977,2.519989c0.79599,2.706009 5.972,3.677002 5,7.912003c1.026001,3.725006 2.472992,2.352005 3.727997,2.138c0.985992,3.619003 1.544983,0.955994 1.59198,-0.766006c4.512009,0.96701 3.453003,3.63501 4.868011,5.499008c3.106018,1.399994 -4.451996,-9.514008 0.886017,-3.283997c5.615997,5.070999 2.108002,7.187988 -2.934021,6.375992c3.189011,-0.259003 4.219986,4.311996 8.209015,4.150009c3.643005,1.731995 6.104004,8.381989 -0.169006,5.615997c-2.174988,-1.960999 -9.873993,-4.382004 -3.588989,-0.649002c5.812988,2.686996 10.425995,4.294998 16.02298,7.671997c4.01001,2.862 5.743011,6.138 7.26001,6.785995c-3.367004,1.614014 -10.149994,-1.28299 -5.115005,-2.169998c-3.140976,-0.57399 -6.676987,-2.162994 -3.664001,1.753006c2.559006,2.138 9.066025,1.910004 10.230011,2.151001c-0.985001,2.179993 -2.684006,2.352005 0.043015,2.522003c-3.044006,1.621002 0.971985,1.871002 1.254974,2.797989l0,0zm-6.218994,-17.567001c-1.852997,-1.93399 -2.329987,-5.557999 -0.328003,-2.405991c1.02301,0.412003 3.285004,5.925995 0.328003,2.405991l0,0zm26.472992,30.432007m-23.177979,-17.606995m-2.011993,-2.710007m-30.615036,-34.404999m19.414017,10.524002m-13.714996,-9.539001m11.770996,3.772995c-2.205002,-4.940994 1.563995,-2.69899 0.490997,0.813004l-0.490997,-0.813004l0,0zm-20.302002,-13.539001c-0.985992,-1.619995 -2.61499,-6.375 -2.088013,-7.826996c0.470001,2.365997 5.024017,10.175995 2.231003,3.237c-3.089005,-5.820999 3.690018,1.88501 4.388016,3.337997c0.325989,1.443008 -1.906006,-0.394989 -0.390991,2.990005c-2.759003,-3.854996 -1.630005,2.130005 -4.140015,-1.738007zm-6.272003,-4.320999m2.821014,0.970001m-6.789001,-5.252991c-2.334015,-2.319 -4.027008,-4.458008 0.108978,-1.439011c1.596024,0.063004 -3.540985,-4.866989 0.384003,-1.564987c4.128021,0.751999 2.037018,6.763992 -0.492981,3.003998zm3.567993,-0.091003m2.192993,0.701004m-4.362991,-4.166c-6.791,-6.042007 8.531006,3.156998 1.111008,1.119995l-1.111008,-1.119995l0,0zm19.455002,11.302994c-2.937012,-1.761993 -0.778992,-12.404999 0.225006,-5.125992c2.856995,-0.924011 -0.156006,3.757996 1.97699,3.715988c-0.337982,2.955002 -1.291992,4.016006 -2.201996,1.410004zm7.196014,4.251999m-1.247009,-1.233994m-24.072021,-16.309006c-4.360992,-6.020996 12.678024,6.087997 2.793015,1.527008c-1.030991,-0.270004 -2.272018,-0.367004 -2.793015,-1.527008zm13.860016,7.347c-0.414001,-5.065994 0.921005,0.841003 0,0l0,0zm10.520996,6.75m-23.712006,-16.393997c2.593018,-0.554001 10.744995,4.552994 3.26001,1.459c-0.833008,-0.919998 -2.606003,-0.501999 -3.26001,-1.459zm22.265015,11.100006c0.278992,-5.183014 1.550995,-3.100006 0.010986,0.73999l-0.010986,-0.73999l0,0l0,0zm-20.335022,-12.904007c1.057007,-1.546997 -2.803986,-7.003998 0.558014,-1.958008c1.450989,1.156006 4.203003,1.938004 1.77301,2.420013c3.823975,3.370987 -0.933014,0.914993 -2.331024,-0.462006zm39.568024,24.186996m-21.439011,-16.735001m5.014999,2.987m14.153015,7.874008m-0.817017,-1.818008m-1.208984,-3.175003c-0.329025,-2.002991 1.121979,2.515015 0,0l0,0zm1.964981,-3.191986c-1.349991,-2.375 1.700989,-10.465012 2.042999,-5.450012c-1.42598,3.91301 -0.414001,6.100006 0.580002,0.855011c1.832001,-4.126999 -0.395996,8.144989 -2.623001,4.595001l0,0zm2.016006,-12.034012m-3.36499,66.376999m6.934982,3.51001c3.861008,0.991989 3.842026,-0.598007 0.352005,-1.074005c-1.875,-1.746002 -7.798981,-3.597992 -2.498993,-0.216003c0.349991,0.889008 1.463013,0.871002 2.146988,1.290009l0,0zm-13.705002,-9.104004c2.129028,1.587006 8.01001,4.498001 3.029999,0.604996c1.679016,-1.951996 -3.21199,-2.990997 -1.593994,-4.291992c-4.124008,-2.529999 -3.255005,-2.306 -0.359985,-2.225998c-4.963013,-2.213013 0.716965,-2.048004 0.446991,-3.188004c-1.914001,-0.376999 -9.505005,-3.371002 -5.039001,0.248001c-4.535004,-2.318008 -1.079987,0.862991 -2.453003,0.526993c-4.643982,-1.266998 4.134003,3.533005 -0.735992,2.343002c2.665985,2.109009 7.165985,5.404007 1.122986,2.231003c-0.792999,1.145996 4.326019,2.882004 5.582001,3.751999l0,0zm7.258026,4.171005m37.151978,22.509995m3.819,1.606995c2.037018,-1.975998 0.084015,3.143005 3.375,-0.485992c0.035004,-2.593994 -0.10199,-4.126999 -3.780975,-0.977005c-1.012024,0.563004 -1.469025,2.955002 0.405975,1.462997l0,0zm-80.950989,-50.974991m4.078979,2.673004m23.197021,13.987991c2.263992,2.013 10.402008,1.479004 2.75,0.25c-1.131012,-1.675995 -7.194,-1.274002 -2.75,-0.25zm31.889984,19.697006m7.248001,4.983002m0.012009,-1.317001c3.859009,-4.087006 -3.740997,0.23999 0,0l0,0zm-76.455017,-48.419006c-3.289001,-4.694 -2.040985,-6.804001 -5.21698,-10.639999c-0.60202,-2.929993 -5.442993,-9.582993 -2.507019,-2.537994c2.695007,4.125 3.494019,10.50499 7.723999,13.177994zm75.246033,47.115997m5.415985,2.126999m-71.83902,-46.039001m70.710022,44.586014c3.445007,-2.215012 -0.793015,-1.875 -0.625,0.204987l0.625,-0.204987l0,0zm-46.727997,-29.453003m2.885986,1.662003m49.365021,29.291c4.414001,-3.180008 -2.671997,-0.60701 -0.924011,0.603989l0.924011,-0.603989l0,0zm-1.687012,-0.812012m8.631012,5.746002m-80.965027,-52.112c3.231995,0.725998 12.924011,7.966003 7.207001,0.503998c-2.927979,-0.867996 -1.173981,-8.026001 -4.159988,-6.757996c2.005005,3.347992 1.650009,4.774002 -2.557999,2.664001c-5.289993,-2.584 -2.974014,1.278992 -1.942017,2.343994c-1.403992,0.317001 1.865021,1.221008 1.453003,1.246002l0,0zm-14.735992,-11.634003c0.578003,-2.394989 -5.329987,-13.175003 -2.792007,-5.401993c0.921005,1.627991 0.825012,4.714996 2.792007,5.401993zm41.781006,28.309006m4.100998,0.953995m35.53801,22.402008c-0.674011,-1.729004 -2.679993,-0.039001 0,0l0,0zm1.707001,1.25m14.091003,8.871002m-75.121002,-48.27301m56.196991,35.404007m-57.730011,-38.973007m7.225006,3.497009m88.123993,54.043991c3.201019,-0.649994 10.494019,1.626999 11.678009,-0.847992c-3.889008,-0.096008 -13.450989,-2.744003 -13.902008,0.628998l0.848022,0.134995l1.375977,0.084l0,0l0,0zm-85.828003,-53.460999m-18.996002,-13.177994m4.532013,1.138m2.58699,1.274002m16.290024,10.447998m-32.748001,-24.949997m-9.289017,-6.027008m1.381012,-1.046005m7.634003,4.557999c3.229004,-1.268997 -5.878998,-2.619995 -0.660004,-0.23999l0.660004,0.23999zm102.156006,63.096008m12.339996,6.397003m-113.718018,-73.49501m-10.858002,-7.274994c-0.585983,-3.343002 -0.502991,-9.210999 5.076019,-7.229996c-7.450012,1.478989 5.151978,9.259003 3.563995,3.116989c3.130997,0.153 6.125,-1.85199 4.481995,1.193008c6.169998,-0.682999 10.447006,-6.033997 16.408005,-5.285004c4.64299,-0.615005 9.718994,-1.078995 14.723007,-2.949997c4.113007,-0.296997 8.074982,-4.723999 5.820007,-7.350006c-5.609009,-0.477997 -11.481018,0.229996 -17.682022,1.458008c-6.873001,1.428986 -13.115005,4.145996 -20.048996,5.307999c-6.753998,0.908005 1.360992,2.503998 -0.57399,2.856003c-3.527008,1.224991 4.20697,2.048996 -0.459,3.338989c-2.875015,-0.54599 -5.872009,-1.536987 -4.64502,-4.569992c-6.474991,0.837997 -12.161987,3.528 -7.046997,10.112991l0.382996,0.001007l0,0l0,0zm15.596008,-7.945007c1.520004,-5.589996 8.13501,4.602005 2.488983,0.74501c-0.673981,-0.503006 -1.781982,-0.915009 -2.488983,-0.74501zm0.297989,-2.709m2.779999,0.047012c0.197021,-2.572998 6.36702,1.360992 1.017014,0.925995l-1.017014,-0.925995l0,0zm3.807022,-1.532013m0.968994,-0.651993c2.313995,-2.779007 13.10498,-1.774994 5.207001,-0.270996c-2.117996,-1.595001 -3.739014,0.940002 -5.207001,0.270996zm14.080002,-2.171005m3.998001,-0.020004c1.456985,-3.828995 5.665985,-1.537994 0.674011,-0.770996c0.108978,0.406006 -0.145035,1.978012 -0.674011,0.770996zm-32.240997,20.296005c4.362,-2.671997 -4.633026,-2.319992 0,0l0,0zm3.222992,0.893005m-9.506012,-6.742996m128.855011,80.608994m-13.095001,-8.934998m16.695007,9.798004c3.484009,0.007996 10.561005,-1.082001 2.975006,-1.080002c-1.190002,0.18399 -6.932007,0.147003 -2.975006,1.080002l0,0zm-120.111008,-76.297012c2.822006,-0.190994 4.413986,-3.110992 -0.545013,-2.941986c-7.687973,-0.797012 6.781006,2.62999 -0.985001,1.651001c-1.046982,0.689987 1.471008,1.484985 1.530014,1.290985zm122.595016,77.559006m2.948975,-7.862m-9.381989,-15.686005c5.035004,-1.710999 11.92099,-3.636993 14.298004,0.846008c-2.420013,-2.915009 -0.976013,-5.781006 1.308014,-1.524002c3.231995,4.309998 4.849976,-1.957001 2.748993,-3.401993c2.394989,2.97699 5.121979,4.382996 1.602997,0.187988c3.821991,-4.595001 -7.649017,0.602997 -10.257996,0.548004c-1.257019,0.563995 -12.951996,2.981003 -9.700012,3.343994zm2.951996,-5.651993c2.872009,-2.167999 9.931,1.289993 5.399994,-2.154999c-0.441986,-0.389008 -9.922974,2.612991 -5.399994,2.154999zm10.468018,0.432999c3.360992,0.085007 -1.449005,-4.513 2.554993,-2.431c-0.656006,-2.149002 -4.662994,-2.550003 -6.621002,-3.408997c-1.106995,1.966003 2.255005,5.86499 4.06601,5.839996zm-8.63501,-9.503006m4.278992,1.025009c5.417023,-0.721008 -1.380005,-2.333008 -1.091003,-0.061005l1.091003,0.061005l0,0zm-7.987,-6.251007c-3.813995,-4.981003 7.170013,0.834 3.294006,-4.377991c-3.26001,-2.596008 -6.391998,2.922989 -3.294006,4.377991zm48.940002,26.358002c1.748016,-3.097992 -7.225006,-4.177002 -1.178986,-1.097992c0.557983,0.18399 0.431,1.313995 1.178986,1.097992z" id="path371" fill="#010101"/>
     </g>
    </g>
   </g>
  </g>
  <g id="g400" transform="matrix(0.4938 0 0 0.4938 -48.6393 -27.4122)">
   <path clip-rule="evenodd" d="m175.227203,293.668427c-5.107986,-4.096008 -9.822983,-9.256989 -14.533981,-14.424988c5.378983,3.369995 10.201981,8.234009 14.533981,14.424988z" id="path402" fill-rule="evenodd"/>
  </g>
  <g id="g404" transform="matrix(0.4938 0 0 0.4938 -48.6393 -27.4122)">
   <path clip-rule="evenodd" d="m233.196213,125.221451c0.860001,6.490997 0.699005,13.479996 0.531021,20.470001c-1.557007,-6.151001 -1.681,-13.002014 -0.531021,-20.470001z" id="path406" fill-rule="evenodd"/>
  </g>
  <g id="g408" transform="matrix(0.4938 0 0 0.4938 -48.6393 -27.4122)">
   <path clip-rule="evenodd" d="m162.86322,264.966431c-5.464996,-3.60498 -10.636993,-8.309998 -15.806,-13.019989c5.667999,2.85701 10.919998,7.256012 15.806,13.019989z" id="path410" fill-rule="evenodd"/>
  </g>
  <g id="g412" transform="matrix(0.4938 0 0 0.4938 -48.6393 -27.4122)">
   <path clip-rule="evenodd" d="m268.658234,89.212448c14.41098,8.375 29.510986,19.175003 44.608002,29.988998c-13.146027,-9.768997 -27.087006,-17.417999 -44.608002,-29.988998z" id="path414" fill-rule="evenodd"/>
  </g>
  <g id="g424" transform="matrix(0.4938 0 0 0.4938 -48.6393 -27.4122)">
   <path clip-rule="evenodd" d="m314.948212,134.711441c-2.535004,2.101013 1.625,-5.813995 2.985016,-4.503998c3.18399,1.087997 -0.912994,3.650009 -1.485016,5.499008c-0.020996,-2.387009 1.75,-5.76001 -1.5,-0.99501z" id="path426" fill-rule="evenodd"/>
  </g>
  <g id="g428" transform="matrix(0.4938 0 0 0.4938 -48.6393 -27.4122)">
   <path clip-rule="evenodd" d="m238.587219,186.634445c4.627014,1.464996 26.298004,13.048004 26.748016,13.421005c-4.628021,-2.408005 -24.827026,-10.040009 -26.748016,-13.421005z" id="path430" fill-rule="evenodd"/>
  </g>
  <g id="g432" transform="matrix(0.4938 0 0 0.4938 -48.6393 -27.4122)">
   <path clip-rule="evenodd" d="m197.203217,214.342453c1.123001,6.25 0.914001,38.393997 0.757996,39.140991c-0.031982,-6.824997 -3.501984,-34.858002 -0.757996,-39.140991z" id="path434" fill-rule="evenodd"/>
  </g>
  <g id="g436" transform="matrix(0.4938 0 0 0.4938 -48.6393 -27.4122)">
   <path clip-rule="evenodd" d="m226.596222,186.138443c4.942978,-3.985001 33.242004,-19.230988 33.972992,-19.451996c-5.971985,3.304001 -28.89798,19.803009 -33.972992,19.451996z" id="path438" fill-rule="evenodd"/>
  </g>
  <g id="g440" transform="matrix(0.4938 0 0 0.4938 -48.6393 -27.4122)">
   <path clip-rule="evenodd" d="m151.006226,215.364456c-2.639999,1.943985 -17.581024,9.165985 -17.963013,9.262985c3.154999,-1.569 15.353012,-9.55899 17.963013,-9.262985z" id="path442" fill-rule="evenodd"/>
  </g>
  <g id="g444" transform="matrix(0.4938 0 0 0.4938 -48.6393 -27.4122)">
   <path clip-rule="evenodd" d="m223.227219,63.642445c-2.516022,1.486004 -16.409988,6.547001 -16.755997,6.600002c2.937988,-1.108002 14.470001,-7.097004 16.755997,-6.600002z" id="path446" fill-rule="evenodd"/>
  </g>
  <g id="g448" transform="matrix(0.4938 0 0 0.4938 -48.6393 -27.4122)">
   <path clip-rule="evenodd" d="m169.5242,164.750443c-5.043976,-2.755997 -27.819977,-21.317001 -28.268982,-21.858994c4.876984,3.884003 26.674011,17.397003 28.268982,21.858994z" id="path450" fill-rule="evenodd"/>
  </g>
  <g id="g452" transform="matrix(0.4938 0 0 0.4938 -48.6393 -27.4122)">
   <path clip-rule="evenodd" d="m244.750214,183.205444c-5.266998,3.799011 -36.792999,19.225998 -37.638977,19.479004c6.638,-3.326996 31.429993,-19.289993 37.638977,-19.479004z" id="path454" fill-rule="evenodd"/>
  </g>
  <g id="g456" transform="matrix(0.4938 0 0 0.4938 -48.6393 -27.4122)">
   <path clip-rule="evenodd" d="m209.176208,218.886444c0.854004,7.785004 -2.121979,47.899994 -2.379013,48.833984c0.537033,-8.516998 -1.358978,-43.457977 2.379013,-48.833984z" id="path458" fill-rule="evenodd"/>
  </g>
  <g id="g460" transform="matrix(0.4938 0 0 0.4938 -48.6393 -27.4122)">
   <path clip-rule="evenodd" d="m213.836197,197.512451c-5.347977,-3.423996 -28.781967,-25.428009 -29.222977,-26.050003c5.028,4.615005 27.946014,21.125 29.222977,26.050003z" id="path462" fill-rule="evenodd"/>
  </g>
  <g id="g464" transform="matrix(0.4938 0 0 0.4938 -48.6393 -27.4122)">
   <path clip-rule="evenodd" d="m144.867218,117.184448c-1.325989,1.350998 -9.177002,6.844002 -9.386017,6.934998c1.654022,-1.184998 7.871017,-6.863998 9.386017,-6.934998z" id="path466" fill-rule="evenodd"/>
  </g>
  <g id="g468" transform="matrix(0.4938 0 0 0.4938 -48.6393 -27.4122)">
   <path clip-rule="evenodd" d="m174.265213,180.004456c-2.521011,-1.456009 -13.710983,-11.041 -13.924988,-11.317001c2.397003,2.007996 13.236984,9.089996 13.924988,11.317001z" id="path470" fill-rule="evenodd"/>
  </g>
  <g id="g472" transform="matrix(0.4938 0 0 0.4938 -48.6393 -27.4122)">
   <path clip-rule="evenodd" d="m228.568237,179.354446c-2.258026,1.837997 -15.199005,8.880005 -15.534027,8.983002c2.731018,-1.526001 13.209015,-9.132996 15.534027,-8.983002z" id="path474" fill-rule="evenodd"/>
  </g>
  <g id="g476" transform="matrix(0.4938 0 0 0.4938 -48.6393 -27.4122)">
   <path clip-rule="evenodd" d="m164.025208,215.868454c0.136993,5.181 5.627014,30.83699 5.876007,31.408997c-1.102997,-5.460007 -2.972992,-28.440002 -5.876007,-31.408997z" id="path478" fill-rule="evenodd"/>
  </g>
  <g id="g480" transform="matrix(0.4938 0 0 0.4938 -48.6393 -27.4122)">
   <path clip-rule="evenodd" d="m166.436218,237.379456c0.069992,2.673996 2.904984,15.918991 3.033997,16.213989c-0.569992,-2.819 -1.535004,-14.681992 -3.033997,-16.213989z" id="path482" fill-rule="evenodd"/>
  </g>
  <g id="g484" transform="matrix(0.4938 0 0 0.4938 -48.6393 -27.4122)">
   <path clip-rule="evenodd" d="m285.524231,135.540451c-4.979004,1.440994 -28.416016,13.235001 -28.906006,13.619995c5.005005,-2.446991 26.766998,-10.059998 28.906006,-13.619995z" id="path486" fill-rule="evenodd"/>
  </g>
  <g id="g488" transform="matrix(0.4938 0 0 0.4938 -48.6393 -27.4122)">
   <path clip-rule="evenodd" d="m265.319214,143.308441c-2.569,0.743011 -14.667999,6.832001 -14.92099,7.031006c2.583008,-1.264999 13.819,-5.195999 14.92099,-7.031006z" id="path490" fill-rule="evenodd"/>
  </g>
 </g>
</svg>